<?xml version="1.0"?>
<svg xmlns="http://www.w3.org/2000/svg" xmlns:xlink="http://www.w3.org/1999/xlink" viewBox="0 0 210.000000 156.000000" width="105.000000mm" height="78.000000mm" version="1.1">
<rect x="1.000000" y="1.000000" width="209.000000" height="155.000000" rx="0" ry="0" style="stroke:none;fill:#cccccc;"/>
<rect x="0.000000" y="0.000000" width="209.000000" height="155.000000" rx="0" ry="0" style="stroke:none;fill:#ffffff;"/>
<text x="10.000000" y="7.000000" font-family="Arial" font-size="7"></text>
<rect x="35.000000" y="51.000000" width="24.000000" height="24.000000" rx="0" ry="0" style="stroke:none;fill:#cccccc;"/>
<rect x="34.000000" y="50.000000" width="24.000000" height="24.000000" rx="0" ry="0" style="stroke:none;fill:#f44800;"/>
<text x="46.000000" y="64.000000" font-family="Arial" font-size="7" text-anchor="middle" fill="#FFFFFF">10</text>
<circle cx="36.000000" cy="52.000000" r="1"/>
<rect x="35.000000" y="83.000000" width="24.000000" height="24.000000" rx="0" ry="0" style="stroke:none;fill:#cccccc;"/>
<rect x="34.000000" y="82.000000" width="24.000000" height="24.000000" rx="0" ry="0" style="stroke:none;fill:#f44800;"/>
<text x="46.000000" y="96.000000" font-family="Arial" font-size="7" text-anchor="middle" fill="#FFFFFF">20</text>
<circle cx="36.000000" cy="84.000000" r="1"/>
<line x1="25.000000" y1="41.000000" x2="25.000000" y2="115.000000"  style="stroke: black; stroke-linecap:round; stroke-width:0.25; stroke-dasharray:3,3;"/>
<line x1="25.000000" y1="115.000000" x2="67.000000" y2="115.000000"  style="stroke: black; stroke-linecap:round; stroke-width:0.25; stroke-dasharray:3,3;"/>
<line x1="67.000000" y1="115.000000" x2="67.000000" y2="41.000000"  style="stroke: black; stroke-linecap:round; stroke-width:0.25; stroke-dasharray:3,3;"/>
<line x1="25.000000" y1="41.000000" x2="30.000000" y2="41.000000"  style="stroke: black; stroke-linecap:round; stroke-width:0.25; stroke-dasharray:3,3;"/>
<line x1="39.675000" y1="41.000000" x2="67.000000" y2="41.000000"  style="stroke: black; stroke-linecap:round; stroke-width:0.25; stroke-dasharray:3,3;"/>
<text x="30.000000" y="43.000000" font-family="Arial" font-size="7">A</text>
<rect x="137.000000" y="35.000000" width="24.000000" height="24.000000" rx="0" ry="0" style="stroke:none;fill:#cccccc;"/>
<rect x="136.000000" y="34.000000" width="24.000000" height="24.000000" rx="0" ry="0" style="stroke:none;fill:#4B71A1;"/>
<text x="148.000000" y="48.000000" font-family="Arial" font-size="7" text-anchor="middle" fill="#FFFFFF">+</text>
<circle cx="138.000000" cy="36.000000" r="1"/>
<line x1="133.000000" y1="41.000000" x2="136.000000" y2="42.000000"  transform="rotate(0.000000,136.000000,42.000000)" style="stroke: black; stroke-width:0.25;"/>
<line x1="133.000000" y1="43.000000" x2="136.000000" y2="42.000000"  transform="rotate(0.000000,136.000000,42.000000)" style="stroke: black; stroke-width:0.25;"/>
<line x1="133.000000" y1="49.000000" x2="136.000000" y2="50.000000"  transform="rotate(0.000000,136.000000,50.000000)" style="stroke: black; stroke-width:0.25;"/>
<line x1="133.000000" y1="51.000000" x2="136.000000" y2="50.000000"  transform="rotate(0.000000,136.000000,50.000000)" style="stroke: black; stroke-width:0.25;"/>
<rect x="137.000000" y="67.000000" width="24.000000" height="24.000000" rx="0" ry="0" style="stroke:none;fill:#cccccc;"/>
<rect x="136.000000" y="66.000000" width="24.000000" height="24.000000" rx="0" ry="0" style="stroke:none;fill:#4B71A1;"/>
<text x="148.000000" y="80.000000" font-family="Arial" font-size="7" text-anchor="middle" fill="#FFFFFF">*</text>
<circle cx="138.000000" cy="68.000000" r="1"/>
<line x1="133.000000" y1="73.000000" x2="136.000000" y2="74.000000"  transform="rotate(0.000000,136.000000,74.000000)" style="stroke: black; stroke-width:0.25;"/>
<line x1="133.000000" y1="75.000000" x2="136.000000" y2="74.000000"  transform="rotate(0.000000,136.000000,74.000000)" style="stroke: black; stroke-width:0.25;"/>
<line x1="133.000000" y1="81.000000" x2="136.000000" y2="82.000000"  transform="rotate(0.000000,136.000000,82.000000)" style="stroke: black; stroke-width:0.25;"/>
<line x1="133.000000" y1="83.000000" x2="136.000000" y2="82.000000"  transform="rotate(0.000000,136.000000,82.000000)" style="stroke: black; stroke-width:0.25;"/>
<rect x="137.000000" y="99.000000" width="24.000000" height="24.000000" rx="0" ry="0" style="stroke:none;fill:#cccccc;"/>
<rect x="136.000000" y="98.000000" width="24.000000" height="24.000000" rx="0" ry="0" style="stroke:none;fill:#4B71A1;"/>
<text x="148.000000" y="112.000000" font-family="Arial" font-size="7" text-anchor="middle" fill="#FFFFFF">/</text>
<circle cx="138.000000" cy="100.000000" r="1"/>
<line x1="133.000000" y1="105.000000" x2="136.000000" y2="106.000000"  transform="rotate(0.000000,136.000000,106.000000)" style="stroke: black; stroke-width:0.25;"/>
<line x1="133.000000" y1="107.000000" x2="136.000000" y2="106.000000"  transform="rotate(0.000000,136.000000,106.000000)" style="stroke: black; stroke-width:0.25;"/>
<line x1="133.000000" y1="113.000000" x2="136.000000" y2="114.000000"  transform="rotate(0.000000,136.000000,114.000000)" style="stroke: black; stroke-width:0.25;"/>
<line x1="133.000000" y1="115.000000" x2="136.000000" y2="114.000000"  transform="rotate(0.000000,136.000000,114.000000)" style="stroke: black; stroke-width:0.25;"/>
<line x1="127.000000" y1="25.000000" x2="127.000000" y2="131.000000"  style="stroke: black; stroke-linecap:round; stroke-width:0.25; stroke-dasharray:3,3;"/>
<line x1="127.000000" y1="131.000000" x2="169.000000" y2="131.000000"  style="stroke: black; stroke-linecap:round; stroke-width:0.25; stroke-dasharray:3,3;"/>
<line x1="169.000000" y1="131.000000" x2="169.000000" y2="25.000000"  style="stroke: black; stroke-linecap:round; stroke-width:0.25; stroke-dasharray:3,3;"/>
<line x1="127.000000" y1="25.000000" x2="132.000000" y2="25.000000"  style="stroke: black; stroke-linecap:round; stroke-width:0.25; stroke-dasharray:3,3;"/>
<line x1="141.675000" y1="25.000000" x2="169.000000" y2="25.000000"  style="stroke: black; stroke-linecap:round; stroke-width:0.25; stroke-dasharray:3,3;"/>
<text x="132.000000" y="27.000000" font-family="Arial" font-size="7">B</text>
<line x1="15.000000" y1="15.000000" x2="15.000000" y2="141.000000"  style="stroke: black; stroke-linecap:round; stroke-width:0.25; stroke-dasharray:3,3;"/>
<line x1="15.000000" y1="141.000000" x2="195.000000" y2="141.000000"  style="stroke: black; stroke-linecap:round; stroke-width:0.25; stroke-dasharray:3,3;"/>
<line x1="195.000000" y1="141.000000" x2="195.000000" y2="15.000000"  style="stroke: black; stroke-linecap:round; stroke-width:0.25; stroke-dasharray:3,3;"/>
<line x1="15.000000" y1="15.000000" x2="20.000000" y2="15.000000"  style="stroke: black; stroke-linecap:round; stroke-width:0.25; stroke-dasharray:3,3;"/>
<line x1="49.025000" y1="15.000000" x2="195.000000" y2="15.000000"  style="stroke: black; stroke-linecap:round; stroke-width:0.25; stroke-dasharray:3,3;"/>
<text x="20.000000" y="17.000000" font-family="Arial" font-size="7">process</text>
<line x1="197.000000" y1="69.000000" x2="200.000000" y2="70.000000"  transform="rotate(0.000000,200.000000,70.000000)" style="stroke: black; stroke-width:0.25;"/>
<line x1="197.000000" y1="71.000000" x2="200.000000" y2="70.000000"  transform="rotate(0.000000,200.000000,70.000000)" style="stroke: black; stroke-width:0.25;"/>
<line x1="197.000000" y1="77.000000" x2="200.000000" y2="78.000000"  transform="rotate(0.000000,200.000000,78.000000)" style="stroke: black; stroke-width:0.25;"/>
<line x1="197.000000" y1="79.000000" x2="200.000000" y2="78.000000"  transform="rotate(0.000000,200.000000,78.000000)" style="stroke: black; stroke-width:0.25;"/>
<line x1="197.000000" y1="85.000000" x2="200.000000" y2="86.000000"  transform="rotate(0.000000,200.000000,86.000000)" style="stroke: black; stroke-width:0.25;"/>
<line x1="197.000000" y1="87.000000" x2="200.000000" y2="86.000000"  transform="rotate(0.000000,200.000000,86.000000)" style="stroke: black; stroke-width:0.25;"/>
<line x1="58.000000" y1="62.000000" x2="62.000000" y2="62.000000"  style="stroke:black; stroke-linecap:round; stroke-width:0.25;"/>
<line x1="58.000000" y1="94.000000" x2="62.000000" y2="94.000000"  style="stroke:black; stroke-linecap:round; stroke-width:0.25;"/>
<line x1="62.000000" y1="62.000000" x2="72.000000" y2="62.000000"  style="stroke:black; stroke-linecap:round; stroke-width:0.25;"/>
<line x1="62.000000" y1="94.000000" x2="72.000000" y2="94.000000"  style="stroke:black; stroke-linecap:round; stroke-width:0.25;"/>
<line x1="72.000000" y1="62.000000" x2="122.000000" y2="42.000000"  style="stroke:black; stroke-linecap:round; stroke-width:0.25;"/>
<line x1="72.000000" y1="62.000000" x2="122.000000" y2="74.000000"  style="stroke:black; stroke-linecap:round; stroke-width:0.25;"/>
<line x1="72.000000" y1="62.000000" x2="122.000000" y2="106.000000"  style="stroke:black; stroke-linecap:round; stroke-width:0.25;"/>
<line x1="72.000000" y1="94.000000" x2="122.000000" y2="50.000000"  style="stroke:black; stroke-linecap:round; stroke-width:0.25;"/>
<line x1="72.000000" y1="94.000000" x2="122.000000" y2="82.000000"  style="stroke:black; stroke-linecap:round; stroke-width:0.25;"/>
<line x1="72.000000" y1="94.000000" x2="122.000000" y2="114.000000"  style="stroke:black; stroke-linecap:round; stroke-width:0.25;"/>
<line x1="122.000000" y1="42.000000" x2="132.000000" y2="42.000000"  style="stroke:black; stroke-linecap:round; stroke-width:0.25;"/>
<line x1="122.000000" y1="50.000000" x2="132.000000" y2="50.000000"  style="stroke:black; stroke-linecap:round; stroke-width:0.25;"/>
<line x1="122.000000" y1="74.000000" x2="132.000000" y2="74.000000"  style="stroke:black; stroke-linecap:round; stroke-width:0.25;"/>
<line x1="122.000000" y1="82.000000" x2="132.000000" y2="82.000000"  style="stroke:black; stroke-linecap:round; stroke-width:0.25;"/>
<line x1="122.000000" y1="106.000000" x2="132.000000" y2="106.000000"  style="stroke:black; stroke-linecap:round; stroke-width:0.25;"/>
<line x1="122.000000" y1="114.000000" x2="132.000000" y2="114.000000"  style="stroke:black; stroke-linecap:round; stroke-width:0.25;"/>
<line x1="132.000000" y1="42.000000" x2="136.000000" y2="42.000000"  style="stroke:black; stroke-linecap:round; stroke-width:0.25;"/>
<line x1="132.000000" y1="50.000000" x2="136.000000" y2="50.000000"  style="stroke:black; stroke-linecap:round; stroke-width:0.25;"/>
<line x1="132.000000" y1="74.000000" x2="136.000000" y2="74.000000"  style="stroke:black; stroke-linecap:round; stroke-width:0.25;"/>
<line x1="132.000000" y1="82.000000" x2="136.000000" y2="82.000000"  style="stroke:black; stroke-linecap:round; stroke-width:0.25;"/>
<line x1="132.000000" y1="106.000000" x2="136.000000" y2="106.000000"  style="stroke:black; stroke-linecap:round; stroke-width:0.25;"/>
<line x1="132.000000" y1="114.000000" x2="136.000000" y2="114.000000"  style="stroke:black; stroke-linecap:round; stroke-width:0.25;"/>
<line x1="160.000000" y1="46.000000" x2="164.000000" y2="46.000000"  style="stroke:black; stroke-linecap:round; stroke-width:0.25;"/>
<line x1="160.000000" y1="78.000000" x2="164.000000" y2="78.000000"  style="stroke:black; stroke-linecap:round; stroke-width:0.25;"/>
<line x1="160.000000" y1="110.000000" x2="164.000000" y2="110.000000"  style="stroke:black; stroke-linecap:round; stroke-width:0.25;"/>
<line x1="164.000000" y1="46.000000" x2="174.000000" y2="46.000000"  style="stroke:black; stroke-linecap:round; stroke-width:0.25;"/>
<line x1="164.000000" y1="78.000000" x2="174.000000" y2="78.000000"  style="stroke:black; stroke-linecap:round; stroke-width:0.25;"/>
<line x1="164.000000" y1="110.000000" x2="174.000000" y2="110.000000"  style="stroke:black; stroke-linecap:round; stroke-width:0.25;"/>
<line x1="174.000000" y1="46.000000" x2="182.000000" y2="46.000000"  style="stroke:black; stroke-linecap:round; stroke-width:0.25;"/>
<line x1="174.000000" y1="78.000000" x2="182.000000" y2="78.000000"  style="stroke:black; stroke-linecap:round; stroke-width:0.25;"/>
<line x1="174.000000" y1="86.000000" x2="182.000000" y2="86.000000"  style="stroke:black; stroke-linecap:round; stroke-width:0.25;"/>
<line x1="174.000000" y1="110.000000" x2="174.000000" y2="86.000000"  style="stroke:black; stroke-linecap:round; stroke-width:0.25;"/>
<line x1="174.000000" y1="110.000000" x2="174.000000" y2="110.000000"  style="stroke:black; stroke-linecap:round; stroke-width:0.25;"/>
<line x1="182.000000" y1="46.000000" x2="182.000000" y2="70.000000"  style="stroke:black; stroke-linecap:round; stroke-width:0.25;"/>
<line x1="182.000000" y1="70.000000" x2="182.000000" y2="70.000000"  style="stroke:black; stroke-linecap:round; stroke-width:0.25;"/>
<line x1="182.000000" y1="70.000000" x2="186.000000" y2="70.000000"  style="stroke:black; stroke-linecap:round; stroke-width:0.25;"/>
<line x1="182.000000" y1="78.000000" x2="186.000000" y2="78.000000"  style="stroke:black; stroke-linecap:round; stroke-width:0.25;"/>
<line x1="182.000000" y1="86.000000" x2="186.000000" y2="86.000000"  style="stroke:black; stroke-linecap:round; stroke-width:0.25;"/>
<line x1="186.000000" y1="70.000000" x2="190.000000" y2="70.000000"  style="stroke:black; stroke-linecap:round; stroke-width:0.25;"/>
<line x1="186.000000" y1="78.000000" x2="190.000000" y2="78.000000"  style="stroke:black; stroke-linecap:round; stroke-width:0.25;"/>
<line x1="186.000000" y1="86.000000" x2="190.000000" y2="86.000000"  style="stroke:black; stroke-linecap:round; stroke-width:0.25;"/>
<line x1="190.000000" y1="70.000000" x2="200.000000" y2="70.000000"  style="stroke:black; stroke-linecap:round; stroke-width:0.25;"/>
<line x1="190.000000" y1="78.000000" x2="200.000000" y2="78.000000"  style="stroke:black; stroke-linecap:round; stroke-width:0.25;"/>
<line x1="190.000000" y1="86.000000" x2="200.000000" y2="86.000000"  style="stroke:black; stroke-linecap:round; stroke-width:0.25;"/>
</svg>
