<?xml version="1.0"?>
<svg xmlns="http://www.w3.org/2000/svg" xmlns:xlink="http://www.w3.org/1999/xlink" viewBox="0 0 225.400000 168.000000" width="112.700000mm" height="84.000000mm" version="1.1">
<rect x="1.000000" y="1.000000" width="224.400000" height="167.000000" rx="0" ry="0" style="stroke:none;fill:#cccccc;"/>
<rect x="0.000000" y="0.000000" width="224.400000" height="167.000000" rx="0" ry="0" style="stroke:none;fill:#ffffff;"/>
<text x="10.000000" y="7.000000" font-family="Arial" font-size="7"></text>
<a xlink:href="bandpass-0x2abc24276a60.svg">
<rect x="75.000000" y="25.000000" width="77.400000" height="24.000000" rx="0" ry="0" style="stroke:none;fill:#cccccc;"/>
<rect x="74.000000" y="24.000000" width="77.400000" height="24.000000" rx="0" ry="0" style="stroke:none;fill:#003366;"/>
</a>
<a xlink:href="bandpass-0x2abc24276a60.svg">
<text x="112.700000" y="38.000000" font-family="Arial" font-size="7" text-anchor="middle" fill="#FFFFFF">bandpass(1)(300)</text>
</a>
<circle cx="76.000000" cy="26.000000" r="1"/>
<line x1="71.000000" y1="31.000000" x2="74.000000" y2="32.000000"  transform="rotate(0.000000,74.000000,32.000000)" style="stroke: black; stroke-width:0.25;"/>
<line x1="71.000000" y1="33.000000" x2="74.000000" y2="32.000000"  transform="rotate(0.000000,74.000000,32.000000)" style="stroke: black; stroke-width:0.25;"/>
<line x1="71.000000" y1="39.000000" x2="74.000000" y2="40.000000"  transform="rotate(0.000000,74.000000,40.000000)" style="stroke: black; stroke-width:0.25;"/>
<line x1="71.000000" y1="41.000000" x2="74.000000" y2="40.000000"  transform="rotate(0.000000,74.000000,40.000000)" style="stroke: black; stroke-width:0.25;"/>
<a xlink:href="bandpass-0x2abc242f0d00.svg">
<rect x="75.000000" y="57.000000" width="77.400000" height="24.000000" rx="0" ry="0" style="stroke:none;fill:#cccccc;"/>
<rect x="74.000000" y="56.000000" width="77.400000" height="24.000000" rx="0" ry="0" style="stroke:none;fill:#003366;"/>
</a>
<a xlink:href="bandpass-0x2abc242f0d00.svg">
<text x="112.700000" y="70.000000" font-family="Arial" font-size="7" text-anchor="middle" fill="#FFFFFF">bandpass(1)(400)</text>
</a>
<circle cx="76.000000" cy="58.000000" r="1"/>
<line x1="71.000000" y1="63.000000" x2="74.000000" y2="64.000000"  transform="rotate(0.000000,74.000000,64.000000)" style="stroke: black; stroke-width:0.25;"/>
<line x1="71.000000" y1="65.000000" x2="74.000000" y2="64.000000"  transform="rotate(0.000000,74.000000,64.000000)" style="stroke: black; stroke-width:0.25;"/>
<line x1="71.000000" y1="71.000000" x2="74.000000" y2="72.000000"  transform="rotate(0.000000,74.000000,72.000000)" style="stroke: black; stroke-width:0.25;"/>
<line x1="71.000000" y1="73.000000" x2="74.000000" y2="72.000000"  transform="rotate(0.000000,74.000000,72.000000)" style="stroke: black; stroke-width:0.25;"/>
<a xlink:href="bandpass-0x2abc2436b0b0.svg">
<rect x="75.000000" y="89.000000" width="77.400000" height="24.000000" rx="0" ry="0" style="stroke:none;fill:#cccccc;"/>
<rect x="74.000000" y="88.000000" width="77.400000" height="24.000000" rx="0" ry="0" style="stroke:none;fill:#003366;"/>
</a>
<a xlink:href="bandpass-0x2abc2436b0b0.svg">
<text x="112.700000" y="102.000000" font-family="Arial" font-size="7" text-anchor="middle" fill="#FFFFFF">bandpass(1)(500)</text>
</a>
<circle cx="76.000000" cy="90.000000" r="1"/>
<line x1="71.000000" y1="95.000000" x2="74.000000" y2="96.000000"  transform="rotate(0.000000,74.000000,96.000000)" style="stroke: black; stroke-width:0.25;"/>
<line x1="71.000000" y1="97.000000" x2="74.000000" y2="96.000000"  transform="rotate(0.000000,74.000000,96.000000)" style="stroke: black; stroke-width:0.25;"/>
<line x1="71.000000" y1="103.000000" x2="74.000000" y2="104.000000"  transform="rotate(0.000000,74.000000,104.000000)" style="stroke: black; stroke-width:0.25;"/>
<line x1="71.000000" y1="105.000000" x2="74.000000" y2="104.000000"  transform="rotate(0.000000,74.000000,104.000000)" style="stroke: black; stroke-width:0.25;"/>
<a xlink:href="bandpass-0x2abc243e5310.svg">
<rect x="75.000000" y="121.000000" width="77.400000" height="24.000000" rx="0" ry="0" style="stroke:none;fill:#cccccc;"/>
<rect x="74.000000" y="120.000000" width="77.400000" height="24.000000" rx="0" ry="0" style="stroke:none;fill:#003366;"/>
</a>
<a xlink:href="bandpass-0x2abc243e5310.svg">
<text x="112.700000" y="134.000000" font-family="Arial" font-size="7" text-anchor="middle" fill="#FFFFFF">bandpass(1)(600)</text>
</a>
<circle cx="76.000000" cy="122.000000" r="1"/>
<line x1="71.000000" y1="127.000000" x2="74.000000" y2="128.000000"  transform="rotate(0.000000,74.000000,128.000000)" style="stroke: black; stroke-width:0.25;"/>
<line x1="71.000000" y1="129.000000" x2="74.000000" y2="128.000000"  transform="rotate(0.000000,74.000000,128.000000)" style="stroke: black; stroke-width:0.25;"/>
<line x1="71.000000" y1="135.000000" x2="74.000000" y2="136.000000"  transform="rotate(0.000000,74.000000,136.000000)" style="stroke: black; stroke-width:0.25;"/>
<line x1="71.000000" y1="137.000000" x2="74.000000" y2="136.000000"  transform="rotate(0.000000,74.000000,136.000000)" style="stroke: black; stroke-width:0.25;"/>
<line x1="15.000000" y1="15.000000" x2="15.000000" y2="153.000000"  style="stroke: black; stroke-linecap:round; stroke-width:0.25; stroke-dasharray:3,3;"/>
<line x1="15.000000" y1="153.000000" x2="210.400000" y2="153.000000"  style="stroke: black; stroke-linecap:round; stroke-width:0.25; stroke-dasharray:3,3;"/>
<line x1="210.400000" y1="153.000000" x2="210.400000" y2="15.000000"  style="stroke: black; stroke-linecap:round; stroke-width:0.25; stroke-dasharray:3,3;"/>
<line x1="15.000000" y1="15.000000" x2="20.000000" y2="15.000000"  style="stroke: black; stroke-linecap:round; stroke-width:0.25; stroke-dasharray:3,3;"/>
<line x1="49.025000" y1="15.000000" x2="210.400000" y2="15.000000"  style="stroke: black; stroke-linecap:round; stroke-width:0.25; stroke-dasharray:3,3;"/>
<text x="20.000000" y="17.000000" font-family="Arial" font-size="7">process</text>
<line x1="212.400000" y1="83.000000" x2="215.400000" y2="84.000000"  transform="rotate(0.000000,215.400000,84.000000)" style="stroke: black; stroke-width:0.25;"/>
<line x1="212.400000" y1="85.000000" x2="215.400000" y2="84.000000"  transform="rotate(0.000000,215.400000,84.000000)" style="stroke: black; stroke-width:0.25;"/>
<line x1="10.000000" y1="84.000000" x2="20.000000" y2="84.000000"  style="stroke:black; stroke-linecap:round; stroke-width:0.25;"/>
<line x1="20.000000" y1="84.000000" x2="24.000000" y2="84.000000"  style="stroke:black; stroke-linecap:round; stroke-width:0.25;"/>
<line x1="24.000000" y1="84.000000" x2="28.000000" y2="84.000000"  style="stroke:black; stroke-linecap:round; stroke-width:0.25;"/>
<line x1="28.000000" y1="84.000000" x2="28.000000" y2="84.000000"  style="stroke:black; stroke-linecap:round; stroke-width:0.25;"/>
<line x1="28.000000" y1="84.000000" x2="32.000000" y2="84.000000"  style="stroke:black; stroke-linecap:round; stroke-width:0.25;"/>
<line x1="32.000000" y1="84.000000" x2="36.000000" y2="84.000000"  style="stroke:black; stroke-linecap:round; stroke-width:0.25;"/>
<line x1="36.000000" y1="84.000000" x2="70.000000" y2="32.000000"  style="stroke:black; stroke-linecap:round; stroke-width:0.25;"/>
<line x1="36.000000" y1="84.000000" x2="70.000000" y2="40.000000"  style="stroke:black; stroke-linecap:round; stroke-width:0.25;"/>
<line x1="36.000000" y1="84.000000" x2="70.000000" y2="64.000000"  style="stroke:black; stroke-linecap:round; stroke-width:0.25;"/>
<line x1="36.000000" y1="84.000000" x2="70.000000" y2="72.000000"  style="stroke:black; stroke-linecap:round; stroke-width:0.25;"/>
<line x1="36.000000" y1="84.000000" x2="70.000000" y2="96.000000"  style="stroke:black; stroke-linecap:round; stroke-width:0.25;"/>
<line x1="36.000000" y1="84.000000" x2="70.000000" y2="104.000000"  style="stroke:black; stroke-linecap:round; stroke-width:0.25;"/>
<line x1="36.000000" y1="84.000000" x2="70.000000" y2="128.000000"  style="stroke:black; stroke-linecap:round; stroke-width:0.25;"/>
<line x1="36.000000" y1="84.000000" x2="70.000000" y2="136.000000"  style="stroke:black; stroke-linecap:round; stroke-width:0.25;"/>
<line x1="70.000000" y1="32.000000" x2="74.000000" y2="32.000000"  style="stroke:black; stroke-linecap:round; stroke-width:0.25;"/>
<line x1="70.000000" y1="40.000000" x2="74.000000" y2="40.000000"  style="stroke:black; stroke-linecap:round; stroke-width:0.25;"/>
<line x1="70.000000" y1="64.000000" x2="74.000000" y2="64.000000"  style="stroke:black; stroke-linecap:round; stroke-width:0.25;"/>
<line x1="70.000000" y1="72.000000" x2="74.000000" y2="72.000000"  style="stroke:black; stroke-linecap:round; stroke-width:0.25;"/>
<line x1="70.000000" y1="96.000000" x2="74.000000" y2="96.000000"  style="stroke:black; stroke-linecap:round; stroke-width:0.25;"/>
<line x1="70.000000" y1="104.000000" x2="74.000000" y2="104.000000"  style="stroke:black; stroke-linecap:round; stroke-width:0.25;"/>
<line x1="70.000000" y1="128.000000" x2="74.000000" y2="128.000000"  style="stroke:black; stroke-linecap:round; stroke-width:0.25;"/>
<line x1="70.000000" y1="136.000000" x2="74.000000" y2="136.000000"  style="stroke:black; stroke-linecap:round; stroke-width:0.25;"/>
<line x1="151.400000" y1="36.000000" x2="155.400000" y2="36.000000"  style="stroke:black; stroke-linecap:round; stroke-width:0.25;"/>
<line x1="151.400000" y1="68.000000" x2="155.400000" y2="68.000000"  style="stroke:black; stroke-linecap:round; stroke-width:0.25;"/>
<line x1="151.400000" y1="100.000000" x2="155.400000" y2="100.000000"  style="stroke:black; stroke-linecap:round; stroke-width:0.25;"/>
<line x1="151.400000" y1="132.000000" x2="155.400000" y2="132.000000"  style="stroke:black; stroke-linecap:round; stroke-width:0.25;"/>
<line x1="155.400000" y1="36.000000" x2="189.400000" y2="84.000000"  style="stroke:black; stroke-linecap:round; stroke-width:0.25;"/>
<line x1="155.400000" y1="68.000000" x2="189.400000" y2="84.000000"  style="stroke:black; stroke-linecap:round; stroke-width:0.25;"/>
<line x1="155.400000" y1="100.000000" x2="189.400000" y2="84.000000"  style="stroke:black; stroke-linecap:round; stroke-width:0.25;"/>
<line x1="155.400000" y1="132.000000" x2="189.400000" y2="84.000000"  style="stroke:black; stroke-linecap:round; stroke-width:0.25;"/>
<line x1="189.400000" y1="84.000000" x2="193.400000" y2="84.000000"  style="stroke:black; stroke-linecap:round; stroke-width:0.25;"/>
<line x1="193.400000" y1="84.000000" x2="197.400000" y2="84.000000"  style="stroke:black; stroke-linecap:round; stroke-width:0.25;"/>
<line x1="197.400000" y1="84.000000" x2="197.400000" y2="84.000000"  style="stroke:black; stroke-linecap:round; stroke-width:0.25;"/>
<line x1="197.400000" y1="84.000000" x2="201.400000" y2="84.000000"  style="stroke:black; stroke-linecap:round; stroke-width:0.25;"/>
<line x1="201.400000" y1="84.000000" x2="205.400000" y2="84.000000"  style="stroke:black; stroke-linecap:round; stroke-width:0.25;"/>
<line x1="205.400000" y1="84.000000" x2="215.400000" y2="84.000000"  style="stroke:black; stroke-linecap:round; stroke-width:0.25;"/>
</svg>
