<?xml version="1.0"?>
<svg xmlns="http://www.w3.org/2000/svg" xmlns:xlink="http://www.w3.org/1999/xlink" viewBox="0 0 228.000000 112.000000" width="114.000000mm" height="56.000000mm" version="1.1">
<rect x="1.000000" y="1.000000" width="227.000000" height="111.000000" rx="0" ry="0" style="stroke:none;fill:#cccccc;"/>
<rect x="0.000000" y="0.000000" width="227.000000" height="111.000000" rx="0" ry="0" style="stroke:none;fill:#ffffff;"/>
<text x="10.000000" y="7.000000" font-family="Arial" font-size="7"></text>
<rect x="33.000000" y="53.000000" width="24.000000" height="24.000000" rx="0" ry="0" style="stroke:none;fill:#cccccc;"/>
<rect x="32.000000" y="52.000000" width="24.000000" height="24.000000" rx="0" ry="0" style="stroke:none;fill:#f44800;"/>
<text x="44.000000" y="66.000000" font-family="Arial" font-size="7" text-anchor="middle" fill="#FFFFFF">0.5</text>
<circle cx="34.000000" cy="54.000000" r="1"/>
<rect x="73.000000" y="49.000000" width="24.000000" height="24.000000" rx="0" ry="0" style="stroke:none;fill:#cccccc;"/>
<rect x="72.000000" y="48.000000" width="24.000000" height="24.000000" rx="0" ry="0" style="stroke:none;fill:#4B71A1;"/>
<text x="84.000000" y="62.000000" font-family="Arial" font-size="7" text-anchor="middle" fill="#FFFFFF">*</text>
<circle cx="74.000000" cy="50.000000" r="1"/>
<line x1="69.000000" y1="55.000000" x2="72.000000" y2="56.000000"  transform="rotate(0.000000,72.000000,56.000000)" style="stroke: black; stroke-width:0.25;"/>
<line x1="69.000000" y1="57.000000" x2="72.000000" y2="56.000000"  transform="rotate(0.000000,72.000000,56.000000)" style="stroke: black; stroke-width:0.25;"/>
<line x1="69.000000" y1="63.000000" x2="72.000000" y2="64.000000"  transform="rotate(0.000000,72.000000,64.000000)" style="stroke: black; stroke-width:0.25;"/>
<line x1="69.000000" y1="65.000000" x2="72.000000" y2="64.000000"  transform="rotate(0.000000,72.000000,64.000000)" style="stroke: black; stroke-width:0.25;"/>
<rect x="131.000000" y="33.000000" width="24.000000" height="24.000000" rx="0" ry="0" style="stroke:none;fill:#cccccc;"/>
<rect x="130.000000" y="32.000000" width="24.000000" height="24.000000" rx="0" ry="0" style="stroke:none;fill:#4B71A1;"/>
<text x="142.000000" y="46.000000" font-family="Arial" font-size="7" text-anchor="middle" fill="#FFFFFF">*</text>
<circle cx="132.000000" cy="34.000000" r="1"/>
<line x1="127.000000" y1="39.000000" x2="130.000000" y2="40.000000"  transform="rotate(0.000000,130.000000,40.000000)" style="stroke: black; stroke-width:0.25;"/>
<line x1="127.000000" y1="41.000000" x2="130.000000" y2="40.000000"  transform="rotate(0.000000,130.000000,40.000000)" style="stroke: black; stroke-width:0.25;"/>
<line x1="127.000000" y1="47.000000" x2="130.000000" y2="48.000000"  transform="rotate(0.000000,130.000000,48.000000)" style="stroke: black; stroke-width:0.25;"/>
<line x1="127.000000" y1="49.000000" x2="130.000000" y2="48.000000"  transform="rotate(0.000000,130.000000,48.000000)" style="stroke: black; stroke-width:0.25;"/>
<rect x="131.000000" y="65.000000" width="24.000000" height="24.000000" rx="0" ry="0" style="stroke:none;fill:#cccccc;"/>
<rect x="130.000000" y="64.000000" width="24.000000" height="24.000000" rx="0" ry="0" style="stroke:none;fill:#4B71A1;"/>
<text x="142.000000" y="78.000000" font-family="Arial" font-size="7" text-anchor="middle" fill="#FFFFFF">*</text>
<circle cx="132.000000" cy="66.000000" r="1"/>
<line x1="127.000000" y1="71.000000" x2="130.000000" y2="72.000000"  transform="rotate(0.000000,130.000000,72.000000)" style="stroke: black; stroke-width:0.25;"/>
<line x1="127.000000" y1="73.000000" x2="130.000000" y2="72.000000"  transform="rotate(0.000000,130.000000,72.000000)" style="stroke: black; stroke-width:0.25;"/>
<line x1="127.000000" y1="79.000000" x2="130.000000" y2="80.000000"  transform="rotate(0.000000,130.000000,80.000000)" style="stroke: black; stroke-width:0.25;"/>
<line x1="127.000000" y1="81.000000" x2="130.000000" y2="80.000000"  transform="rotate(0.000000,130.000000,80.000000)" style="stroke: black; stroke-width:0.25;"/>
<line x1="182.000000" y1="60.000000" x2="182.000000" y2="56.000000"  style="stroke:black; stroke-linecap:round; stroke-width:0.25;"/>
<line x1="182.000000" y1="56.000000" x2="186.000000" y2="56.000000"  style="stroke:black; stroke-linecap:round; stroke-width:0.25;"/>
<line x1="186.000000" y1="56.000000" x2="186.000000" y2="60.000000"  style="stroke:black; stroke-linecap:round; stroke-width:0.25;"/>
<line x1="15.000000" y1="15.000000" x2="15.000000" y2="97.000000"  style="stroke: black; stroke-linecap:round; stroke-width:0.25; stroke-dasharray:3,3;"/>
<line x1="15.000000" y1="97.000000" x2="213.000000" y2="97.000000"  style="stroke: black; stroke-linecap:round; stroke-width:0.25; stroke-dasharray:3,3;"/>
<line x1="213.000000" y1="97.000000" x2="213.000000" y2="15.000000"  style="stroke: black; stroke-linecap:round; stroke-width:0.25; stroke-dasharray:3,3;"/>
<line x1="15.000000" y1="15.000000" x2="20.000000" y2="15.000000"  style="stroke: black; stroke-linecap:round; stroke-width:0.25; stroke-dasharray:3,3;"/>
<line x1="49.025000" y1="15.000000" x2="213.000000" y2="15.000000"  style="stroke: black; stroke-linecap:round; stroke-width:0.25; stroke-dasharray:3,3;"/>
<text x="20.000000" y="17.000000" font-family="Arial" font-size="7">process</text>
<line x1="215.000000" y1="55.000000" x2="218.000000" y2="56.000000"  transform="rotate(0.000000,218.000000,56.000000)" style="stroke: black; stroke-width:0.25;"/>
<line x1="215.000000" y1="57.000000" x2="218.000000" y2="56.000000"  transform="rotate(0.000000,218.000000,56.000000)" style="stroke: black; stroke-width:0.25;"/>
<line x1="28.000000" y1="24.000000" x2="28.000000" y2="24.000000"  style="stroke:black; stroke-linecap:round; stroke-width:0.25;"/>
<line x1="28.000000" y1="24.000000" x2="28.000000" y2="44.000000"  style="stroke:black; stroke-linecap:round; stroke-width:0.25;"/>
<line x1="28.000000" y1="44.000000" x2="28.000000" y2="44.000000"  style="stroke:black; stroke-linecap:round; stroke-width:0.25;"/>
<line x1="28.000000" y1="44.000000" x2="44.000000" y2="44.000000"  style="stroke:black; stroke-linecap:round; stroke-width:0.25;"/>
<line x1="44.000000" y1="44.000000" x2="60.000000" y2="44.000000"  style="stroke:black; stroke-linecap:round; stroke-width:0.25;"/>
<line x1="56.000000" y1="64.000000" x2="60.000000" y2="64.000000"  style="stroke:black; stroke-linecap:round; stroke-width:0.25;"/>
<line x1="60.000000" y1="44.000000" x2="68.000000" y2="44.000000"  style="stroke:black; stroke-linecap:round; stroke-width:0.25;"/>
<line x1="60.000000" y1="64.000000" x2="68.000000" y2="64.000000"  style="stroke:black; stroke-linecap:round; stroke-width:0.25;"/>
<line x1="68.000000" y1="44.000000" x2="68.000000" y2="56.000000"  style="stroke:black; stroke-linecap:round; stroke-width:0.25;"/>
<line x1="68.000000" y1="56.000000" x2="68.000000" y2="56.000000"  style="stroke:black; stroke-linecap:round; stroke-width:0.25;"/>
<line x1="68.000000" y1="56.000000" x2="72.000000" y2="56.000000"  style="stroke:black; stroke-linecap:round; stroke-width:0.25;"/>
<line x1="68.000000" y1="64.000000" x2="72.000000" y2="64.000000"  style="stroke:black; stroke-linecap:round; stroke-width:0.25;"/>
<line x1="96.000000" y1="60.000000" x2="100.000000" y2="60.000000"  style="stroke:black; stroke-linecap:round; stroke-width:0.25;"/>
<line x1="100.000000" y1="60.000000" x2="126.000000" y2="40.000000"  style="stroke:black; stroke-linecap:round; stroke-width:0.25;"/>
<line x1="100.000000" y1="60.000000" x2="126.000000" y2="48.000000"  style="stroke:black; stroke-linecap:round; stroke-width:0.25;"/>
<line x1="100.000000" y1="60.000000" x2="126.000000" y2="72.000000"  style="stroke:black; stroke-linecap:round; stroke-width:0.25;"/>
<line x1="100.000000" y1="60.000000" x2="126.000000" y2="80.000000"  style="stroke:black; stroke-linecap:round; stroke-width:0.25;"/>
<line x1="106.000000" y1="24.000000" x2="28.000000" y2="24.000000"  style="stroke:black; stroke-linecap:round; stroke-width:0.25;"/>
<line x1="126.000000" y1="40.000000" x2="130.000000" y2="40.000000"  style="stroke:black; stroke-linecap:round; stroke-width:0.25;"/>
<line x1="126.000000" y1="48.000000" x2="130.000000" y2="48.000000"  style="stroke:black; stroke-linecap:round; stroke-width:0.25;"/>
<line x1="126.000000" y1="72.000000" x2="130.000000" y2="72.000000"  style="stroke:black; stroke-linecap:round; stroke-width:0.25;"/>
<line x1="126.000000" y1="80.000000" x2="130.000000" y2="80.000000"  style="stroke:black; stroke-linecap:round; stroke-width:0.25;"/>
<line x1="154.000000" y1="44.000000" x2="158.000000" y2="44.000000"  style="stroke:black; stroke-linecap:round; stroke-width:0.25;"/>
<line x1="154.000000" y1="76.000000" x2="158.000000" y2="76.000000"  style="stroke:black; stroke-linecap:round; stroke-width:0.25;"/>
<line x1="158.000000" y1="44.000000" x2="176.000000" y2="60.000000"  style="stroke:black; stroke-linecap:round; stroke-width:0.25;"/>
<line x1="158.000000" y1="76.000000" x2="176.000000" y2="60.000000"  style="stroke:black; stroke-linecap:round; stroke-width:0.25;"/>
<line x1="176.000000" y1="60.000000" x2="180.000000" y2="60.000000"  style="stroke:black; stroke-linecap:round; stroke-width:0.25;"/>
<line x1="180.000000" y1="60.000000" x2="184.000000" y2="60.000000"  style="stroke:black; stroke-linecap:round; stroke-width:0.25;"/>
<line x1="184.000000" y1="24.000000" x2="106.000000" y2="24.000000"  style="stroke:black; stroke-linecap:round; stroke-width:0.25;"/>
<line x1="184.000000" y1="24.000000" x2="184.000000" y2="24.000000"  style="stroke:black; stroke-linecap:round; stroke-width:0.25;"/>
<line x1="184.000000" y1="56.000000" x2="184.000000" y2="24.000000"  style="stroke:black; stroke-linecap:round; stroke-width:0.25;"/>
<line x1="184.000000" y1="60.000000" x2="186.000000" y2="60.000000"  style="stroke:black; stroke-linecap:round; stroke-width:0.25;"/>
<line x1="186.000000" y1="60.000000" x2="192.000000" y2="60.000000"  style="stroke:black; stroke-linecap:round; stroke-width:0.25;"/>
<line x1="192.000000" y1="56.000000" x2="200.000000" y2="56.000000"  style="stroke:black; stroke-linecap:round; stroke-width:0.25;"/>
<line x1="192.000000" y1="60.000000" x2="192.000000" y2="56.000000"  style="stroke:black; stroke-linecap:round; stroke-width:0.25;"/>
<line x1="192.000000" y1="60.000000" x2="192.000000" y2="60.000000"  style="stroke:black; stroke-linecap:round; stroke-width:0.25;"/>
<line x1="200.000000" y1="56.000000" x2="204.000000" y2="56.000000"  style="stroke:black; stroke-linecap:round; stroke-width:0.25;"/>
<line x1="204.000000" y1="56.000000" x2="208.000000" y2="56.000000"  style="stroke:black; stroke-linecap:round; stroke-width:0.25;"/>
<line x1="208.000000" y1="56.000000" x2="218.000000" y2="56.000000"  style="stroke:black; stroke-linecap:round; stroke-width:0.25;"/>
</svg>
