<?xml version="1.0"?>
<svg xmlns="http://www.w3.org/2000/svg" xmlns:xlink="http://www.w3.org/1999/xlink" viewBox="0 0 137.120000 108.480000" width="68.560000mm" height="54.240000mm" version="1.1">
<rect x="1.000000" y="1.000000" width="136.120000" height="107.480000" rx="0" ry="0" style="stroke:none;fill:#cccccc;"/>
<rect x="0.000000" y="0.000000" width="136.120000" height="107.480000" rx="0" ry="0" style="stroke:none;fill:#ffffff;"/>
<text x="10.000000" y="7.000000" font-family="Arial" font-size="7"></text>
<line x1="15.000000" y1="15.000000" x2="15.000000" y2="93.480000"  style="stroke: black; stroke-linecap:round; stroke-width:0.25; stroke-dasharray:3,3;"/>
<line x1="15.000000" y1="93.480000" x2="122.120000" y2="93.480000"  style="stroke: black; stroke-linecap:round; stroke-width:0.25; stroke-dasharray:3,3;"/>
<line x1="122.120000" y1="93.480000" x2="122.120000" y2="15.000000"  style="stroke: black; stroke-linecap:round; stroke-width:0.25; stroke-dasharray:3,3;"/>
<line x1="15.000000" y1="15.000000" x2="20.000000" y2="15.000000"  style="stroke: black; stroke-linecap:round; stroke-width:0.25; stroke-dasharray:3,3;"/>
<line x1="49.025000" y1="15.000000" x2="122.120000" y2="15.000000"  style="stroke: black; stroke-linecap:round; stroke-width:0.25; stroke-dasharray:3,3;"/>
<text x="20.000000" y="17.000000" font-family="Arial" font-size="7">process</text>
<line x1="124.120000" y1="25.240000" x2="127.120000" y2="26.240000"  transform="rotate(0.000000,127.120000,26.240000)" style="stroke: black; stroke-width:0.25;"/>
<line x1="124.120000" y1="27.240000" x2="127.120000" y2="26.240000"  transform="rotate(0.000000,127.120000,26.240000)" style="stroke: black; stroke-width:0.25;"/>
<line x1="124.120000" y1="33.240000" x2="127.120000" y2="34.240000"  transform="rotate(0.000000,127.120000,34.240000)" style="stroke: black; stroke-width:0.25;"/>
<line x1="124.120000" y1="35.240000" x2="127.120000" y2="34.240000"  transform="rotate(0.000000,127.120000,34.240000)" style="stroke: black; stroke-width:0.25;"/>
<line x1="124.120000" y1="41.240000" x2="127.120000" y2="42.240000"  transform="rotate(0.000000,127.120000,42.240000)" style="stroke: black; stroke-width:0.25;"/>
<line x1="124.120000" y1="43.240000" x2="127.120000" y2="42.240000"  transform="rotate(0.000000,127.120000,42.240000)" style="stroke: black; stroke-width:0.25;"/>
<line x1="124.120000" y1="49.240000" x2="127.120000" y2="50.240000"  transform="rotate(0.000000,127.120000,50.240000)" style="stroke: black; stroke-width:0.25;"/>
<line x1="124.120000" y1="51.240000" x2="127.120000" y2="50.240000"  transform="rotate(0.000000,127.120000,50.240000)" style="stroke: black; stroke-width:0.25;"/>
<line x1="124.120000" y1="57.240000" x2="127.120000" y2="58.240000"  transform="rotate(0.000000,127.120000,58.240000)" style="stroke: black; stroke-width:0.25;"/>
<line x1="124.120000" y1="59.240000" x2="127.120000" y2="58.240000"  transform="rotate(0.000000,127.120000,58.240000)" style="stroke: black; stroke-width:0.25;"/>
<line x1="124.120000" y1="65.240000" x2="127.120000" y2="66.240000"  transform="rotate(0.000000,127.120000,66.240000)" style="stroke: black; stroke-width:0.25;"/>
<line x1="124.120000" y1="67.240000" x2="127.120000" y2="66.240000"  transform="rotate(0.000000,127.120000,66.240000)" style="stroke: black; stroke-width:0.25;"/>
<line x1="124.120000" y1="73.240000" x2="127.120000" y2="74.240000"  transform="rotate(0.000000,127.120000,74.240000)" style="stroke: black; stroke-width:0.25;"/>
<line x1="124.120000" y1="75.240000" x2="127.120000" y2="74.240000"  transform="rotate(0.000000,127.120000,74.240000)" style="stroke: black; stroke-width:0.25;"/>
<line x1="124.120000" y1="81.240000" x2="127.120000" y2="82.240000"  transform="rotate(0.000000,127.120000,82.240000)" style="stroke: black; stroke-width:0.25;"/>
<line x1="124.120000" y1="83.240000" x2="127.120000" y2="82.240000"  transform="rotate(0.000000,127.120000,82.240000)" style="stroke: black; stroke-width:0.25;"/>
<line x1="10.000000" y1="26.240000" x2="20.000000" y2="26.240000"  style="stroke:black; stroke-linecap:round; stroke-width:0.25;"/>
<line x1="10.000000" y1="34.240000" x2="20.000000" y2="34.240000"  style="stroke:black; stroke-linecap:round; stroke-width:0.25;"/>
<line x1="10.000000" y1="42.240000" x2="20.000000" y2="42.240000"  style="stroke:black; stroke-linecap:round; stroke-width:0.25;"/>
<line x1="10.000000" y1="50.240000" x2="20.000000" y2="50.240000"  style="stroke:black; stroke-linecap:round; stroke-width:0.25;"/>
<line x1="10.000000" y1="58.240000" x2="20.000000" y2="58.240000"  style="stroke:black; stroke-linecap:round; stroke-width:0.25;"/>
<line x1="10.000000" y1="66.240000" x2="20.000000" y2="66.240000"  style="stroke:black; stroke-linecap:round; stroke-width:0.25;"/>
<line x1="10.000000" y1="74.240000" x2="20.000000" y2="74.240000"  style="stroke:black; stroke-linecap:round; stroke-width:0.25;"/>
<line x1="10.000000" y1="82.240000" x2="20.000000" y2="82.240000"  style="stroke:black; stroke-linecap:round; stroke-width:0.25;"/>
<line x1="20.000000" y1="26.240000" x2="24.000000" y2="26.240000"  style="stroke:black; stroke-linecap:round; stroke-width:0.25;"/>
<line x1="20.000000" y1="34.240000" x2="24.000000" y2="34.240000"  style="stroke:black; stroke-linecap:round; stroke-width:0.25;"/>
<line x1="20.000000" y1="42.240000" x2="24.000000" y2="42.240000"  style="stroke:black; stroke-linecap:round; stroke-width:0.25;"/>
<line x1="20.000000" y1="50.240000" x2="24.000000" y2="50.240000"  style="stroke:black; stroke-linecap:round; stroke-width:0.25;"/>
<line x1="20.000000" y1="58.240000" x2="24.000000" y2="58.240000"  style="stroke:black; stroke-linecap:round; stroke-width:0.25;"/>
<line x1="20.000000" y1="66.240000" x2="24.000000" y2="66.240000"  style="stroke:black; stroke-linecap:round; stroke-width:0.25;"/>
<line x1="20.000000" y1="74.240000" x2="24.000000" y2="74.240000"  style="stroke:black; stroke-linecap:round; stroke-width:0.25;"/>
<line x1="20.000000" y1="82.240000" x2="24.000000" y2="82.240000"  style="stroke:black; stroke-linecap:round; stroke-width:0.25;"/>
<line x1="24.000000" y1="26.240000" x2="28.000000" y2="26.240000"  style="stroke:black; stroke-linecap:round; stroke-width:0.25;"/>
<line x1="24.000000" y1="34.240000" x2="28.000000" y2="34.240000"  style="stroke:black; stroke-linecap:round; stroke-width:0.25;"/>
<line x1="24.000000" y1="42.240000" x2="28.000000" y2="42.240000"  style="stroke:black; stroke-linecap:round; stroke-width:0.25;"/>
<line x1="24.000000" y1="50.240000" x2="28.000000" y2="50.240000"  style="stroke:black; stroke-linecap:round; stroke-width:0.25;"/>
<line x1="24.000000" y1="58.240000" x2="28.000000" y2="58.240000"  style="stroke:black; stroke-linecap:round; stroke-width:0.25;"/>
<line x1="24.000000" y1="66.240000" x2="28.000000" y2="66.240000"  style="stroke:black; stroke-linecap:round; stroke-width:0.25;"/>
<line x1="24.000000" y1="74.240000" x2="28.000000" y2="74.240000"  style="stroke:black; stroke-linecap:round; stroke-width:0.25;"/>
<line x1="24.000000" y1="82.240000" x2="28.000000" y2="82.240000"  style="stroke:black; stroke-linecap:round; stroke-width:0.25;"/>
<line x1="28.000000" y1="26.240000" x2="28.000000" y2="26.240000"  style="stroke:black; stroke-linecap:round; stroke-width:0.25;"/>
<line x1="28.000000" y1="26.240000" x2="32.000000" y2="26.240000"  style="stroke:black; stroke-linecap:round; stroke-width:0.25;"/>
<line x1="28.000000" y1="34.240000" x2="28.000000" y2="34.240000"  style="stroke:black; stroke-linecap:round; stroke-width:0.25;"/>
<line x1="28.000000" y1="34.240000" x2="32.000000" y2="34.240000"  style="stroke:black; stroke-linecap:round; stroke-width:0.25;"/>
<line x1="28.000000" y1="42.240000" x2="28.000000" y2="42.240000"  style="stroke:black; stroke-linecap:round; stroke-width:0.25;"/>
<line x1="28.000000" y1="42.240000" x2="32.000000" y2="42.240000"  style="stroke:black; stroke-linecap:round; stroke-width:0.25;"/>
<line x1="28.000000" y1="50.240000" x2="28.000000" y2="50.240000"  style="stroke:black; stroke-linecap:round; stroke-width:0.25;"/>
<line x1="28.000000" y1="50.240000" x2="32.000000" y2="50.240000"  style="stroke:black; stroke-linecap:round; stroke-width:0.25;"/>
<line x1="28.000000" y1="58.240000" x2="28.000000" y2="58.240000"  style="stroke:black; stroke-linecap:round; stroke-width:0.25;"/>
<line x1="28.000000" y1="58.240000" x2="32.000000" y2="58.240000"  style="stroke:black; stroke-linecap:round; stroke-width:0.25;"/>
<line x1="28.000000" y1="66.240000" x2="28.000000" y2="66.240000"  style="stroke:black; stroke-linecap:round; stroke-width:0.25;"/>
<line x1="28.000000" y1="66.240000" x2="32.000000" y2="66.240000"  style="stroke:black; stroke-linecap:round; stroke-width:0.25;"/>
<line x1="28.000000" y1="74.240000" x2="28.000000" y2="74.240000"  style="stroke:black; stroke-linecap:round; stroke-width:0.25;"/>
<line x1="28.000000" y1="74.240000" x2="32.000000" y2="74.240000"  style="stroke:black; stroke-linecap:round; stroke-width:0.25;"/>
<line x1="28.000000" y1="82.240000" x2="28.000000" y2="82.240000"  style="stroke:black; stroke-linecap:round; stroke-width:0.25;"/>
<line x1="28.000000" y1="82.240000" x2="32.000000" y2="82.240000"  style="stroke:black; stroke-linecap:round; stroke-width:0.25;"/>
<line x1="32.000000" y1="26.240000" x2="36.000000" y2="26.240000"  style="stroke:black; stroke-linecap:round; stroke-width:0.25;"/>
<line x1="32.000000" y1="34.240000" x2="36.000000" y2="34.240000"  style="stroke:black; stroke-linecap:round; stroke-width:0.25;"/>
<line x1="32.000000" y1="42.240000" x2="36.000000" y2="42.240000"  style="stroke:black; stroke-linecap:round; stroke-width:0.25;"/>
<line x1="32.000000" y1="50.240000" x2="36.000000" y2="50.240000"  style="stroke:black; stroke-linecap:round; stroke-width:0.25;"/>
<line x1="32.000000" y1="58.240000" x2="36.000000" y2="58.240000"  style="stroke:black; stroke-linecap:round; stroke-width:0.25;"/>
<line x1="32.000000" y1="66.240000" x2="36.000000" y2="66.240000"  style="stroke:black; stroke-linecap:round; stroke-width:0.25;"/>
<line x1="32.000000" y1="74.240000" x2="36.000000" y2="74.240000"  style="stroke:black; stroke-linecap:round; stroke-width:0.25;"/>
<line x1="32.000000" y1="82.240000" x2="36.000000" y2="82.240000"  style="stroke:black; stroke-linecap:round; stroke-width:0.25;"/>
<line x1="36.000000" y1="26.240000" x2="69.120000" y2="24.000000"  style="stroke:black; stroke-linecap:round; stroke-width:0.25;"/>
<line x1="36.000000" y1="34.240000" x2="69.120000" y2="41.200000"  style="stroke:black; stroke-linecap:round; stroke-width:0.25;"/>
<line x1="36.000000" y1="42.240000" x2="69.120000" y2="58.400000"  style="stroke:black; stroke-linecap:round; stroke-width:0.25;"/>
<line x1="36.000000" y1="50.240000" x2="69.120000" y2="75.600000"  style="stroke:black; stroke-linecap:round; stroke-width:0.25;"/>
<line x1="36.000000" y1="58.240000" x2="69.120000" y2="32.880000"  style="stroke:black; stroke-linecap:round; stroke-width:0.25;"/>
<line x1="36.000000" y1="66.240000" x2="69.120000" y2="50.080000"  style="stroke:black; stroke-linecap:round; stroke-width:0.25;"/>
<line x1="36.000000" y1="74.240000" x2="69.120000" y2="67.280000"  style="stroke:black; stroke-linecap:round; stroke-width:0.25;"/>
<line x1="36.000000" y1="82.240000" x2="69.120000" y2="84.480000"  style="stroke:black; stroke-linecap:round; stroke-width:0.25;"/>
<line x1="69.120000" y1="24.000000" x2="73.120000" y2="24.000000"  style="stroke:black; stroke-linecap:round; stroke-width:0.25;"/>
<line x1="69.120000" y1="32.880000" x2="73.120000" y2="32.880000"  style="stroke:black; stroke-linecap:round; stroke-width:0.25;"/>
<line x1="69.120000" y1="41.200000" x2="73.120000" y2="41.200000"  style="stroke:black; stroke-linecap:round; stroke-width:0.25;"/>
<line x1="69.120000" y1="50.080000" x2="73.120000" y2="50.080000"  style="stroke:black; stroke-linecap:round; stroke-width:0.25;"/>
<line x1="69.120000" y1="58.400000" x2="73.120000" y2="58.400000"  style="stroke:black; stroke-linecap:round; stroke-width:0.25;"/>
<line x1="69.120000" y1="67.280000" x2="73.120000" y2="67.280000"  style="stroke:black; stroke-linecap:round; stroke-width:0.25;"/>
<line x1="69.120000" y1="75.600000" x2="73.120000" y2="75.600000"  style="stroke:black; stroke-linecap:round; stroke-width:0.25;"/>
<line x1="69.120000" y1="84.480000" x2="73.120000" y2="84.480000"  style="stroke:black; stroke-linecap:round; stroke-width:0.25;"/>
<line x1="73.120000" y1="24.000000" x2="77.120000" y2="24.000000"  style="stroke:black; stroke-linecap:round; stroke-width:0.25;"/>
<line x1="73.120000" y1="32.880000" x2="77.120000" y2="32.880000"  style="stroke:black; stroke-linecap:round; stroke-width:0.25;"/>
<line x1="73.120000" y1="41.200000" x2="77.120000" y2="41.200000"  style="stroke:black; stroke-linecap:round; stroke-width:0.25;"/>
<line x1="73.120000" y1="50.080000" x2="77.120000" y2="50.080000"  style="stroke:black; stroke-linecap:round; stroke-width:0.25;"/>
<line x1="73.120000" y1="58.400000" x2="77.120000" y2="58.400000"  style="stroke:black; stroke-linecap:round; stroke-width:0.25;"/>
<line x1="73.120000" y1="67.280000" x2="77.120000" y2="67.280000"  style="stroke:black; stroke-linecap:round; stroke-width:0.25;"/>
<line x1="73.120000" y1="75.600000" x2="77.120000" y2="75.600000"  style="stroke:black; stroke-linecap:round; stroke-width:0.25;"/>
<line x1="73.120000" y1="84.480000" x2="77.120000" y2="84.480000"  style="stroke:black; stroke-linecap:round; stroke-width:0.25;"/>
<line x1="77.120000" y1="24.000000" x2="109.120000" y2="24.000000"  style="stroke:black; stroke-linecap:round; stroke-width:0.25;"/>
<line x1="77.120000" y1="32.880000" x2="101.120000" y2="32.880000"  style="stroke:black; stroke-linecap:round; stroke-width:0.25;"/>
<line x1="77.120000" y1="41.200000" x2="93.120000" y2="41.200000"  style="stroke:black; stroke-linecap:round; stroke-width:0.25;"/>
<line x1="77.120000" y1="50.080000" x2="85.120000" y2="50.080000"  style="stroke:black; stroke-linecap:round; stroke-width:0.25;"/>
<line x1="77.120000" y1="58.240000" x2="109.120000" y2="58.240000"  style="stroke:black; stroke-linecap:round; stroke-width:0.25;"/>
<line x1="77.120000" y1="58.400000" x2="77.120000" y2="58.240000"  style="stroke:black; stroke-linecap:round; stroke-width:0.25;"/>
<line x1="77.120000" y1="58.400000" x2="77.120000" y2="58.400000"  style="stroke:black; stroke-linecap:round; stroke-width:0.25;"/>
<line x1="77.120000" y1="67.280000" x2="85.120000" y2="67.280000"  style="stroke:black; stroke-linecap:round; stroke-width:0.25;"/>
<line x1="77.120000" y1="75.600000" x2="93.120000" y2="75.600000"  style="stroke:black; stroke-linecap:round; stroke-width:0.25;"/>
<line x1="77.120000" y1="84.480000" x2="101.120000" y2="84.480000"  style="stroke:black; stroke-linecap:round; stroke-width:0.25;"/>
<line x1="85.120000" y1="50.080000" x2="85.120000" y2="50.240000"  style="stroke:black; stroke-linecap:round; stroke-width:0.25;"/>
<line x1="85.120000" y1="50.240000" x2="109.120000" y2="50.240000"  style="stroke:black; stroke-linecap:round; stroke-width:0.25;"/>
<line x1="85.120000" y1="66.240000" x2="109.120000" y2="66.240000"  style="stroke:black; stroke-linecap:round; stroke-width:0.25;"/>
<line x1="85.120000" y1="67.280000" x2="85.120000" y2="66.240000"  style="stroke:black; stroke-linecap:round; stroke-width:0.25;"/>
<line x1="93.120000" y1="41.200000" x2="93.120000" y2="42.240000"  style="stroke:black; stroke-linecap:round; stroke-width:0.25;"/>
<line x1="93.120000" y1="42.240000" x2="109.120000" y2="42.240000"  style="stroke:black; stroke-linecap:round; stroke-width:0.25;"/>
<line x1="93.120000" y1="74.240000" x2="109.120000" y2="74.240000"  style="stroke:black; stroke-linecap:round; stroke-width:0.25;"/>
<line x1="93.120000" y1="75.600000" x2="93.120000" y2="74.240000"  style="stroke:black; stroke-linecap:round; stroke-width:0.25;"/>
<line x1="101.120000" y1="32.880000" x2="101.120000" y2="34.240000"  style="stroke:black; stroke-linecap:round; stroke-width:0.25;"/>
<line x1="101.120000" y1="34.240000" x2="109.120000" y2="34.240000"  style="stroke:black; stroke-linecap:round; stroke-width:0.25;"/>
<line x1="101.120000" y1="82.240000" x2="109.120000" y2="82.240000"  style="stroke:black; stroke-linecap:round; stroke-width:0.25;"/>
<line x1="101.120000" y1="84.480000" x2="101.120000" y2="82.240000"  style="stroke:black; stroke-linecap:round; stroke-width:0.25;"/>
<line x1="109.120000" y1="24.000000" x2="109.120000" y2="26.240000"  style="stroke:black; stroke-linecap:round; stroke-width:0.25;"/>
<line x1="109.120000" y1="26.240000" x2="109.120000" y2="26.240000"  style="stroke:black; stroke-linecap:round; stroke-width:0.25;"/>
<line x1="109.120000" y1="26.240000" x2="113.120000" y2="26.240000"  style="stroke:black; stroke-linecap:round; stroke-width:0.25;"/>
<line x1="109.120000" y1="34.240000" x2="113.120000" y2="34.240000"  style="stroke:black; stroke-linecap:round; stroke-width:0.25;"/>
<line x1="109.120000" y1="42.240000" x2="113.120000" y2="42.240000"  style="stroke:black; stroke-linecap:round; stroke-width:0.25;"/>
<line x1="109.120000" y1="50.240000" x2="113.120000" y2="50.240000"  style="stroke:black; stroke-linecap:round; stroke-width:0.25;"/>
<line x1="109.120000" y1="58.240000" x2="113.120000" y2="58.240000"  style="stroke:black; stroke-linecap:round; stroke-width:0.25;"/>
<line x1="109.120000" y1="66.240000" x2="113.120000" y2="66.240000"  style="stroke:black; stroke-linecap:round; stroke-width:0.25;"/>
<line x1="109.120000" y1="74.240000" x2="113.120000" y2="74.240000"  style="stroke:black; stroke-linecap:round; stroke-width:0.25;"/>
<line x1="109.120000" y1="82.240000" x2="113.120000" y2="82.240000"  style="stroke:black; stroke-linecap:round; stroke-width:0.25;"/>
<line x1="113.120000" y1="26.240000" x2="117.120000" y2="26.240000"  style="stroke:black; stroke-linecap:round; stroke-width:0.25;"/>
<line x1="113.120000" y1="34.240000" x2="117.120000" y2="34.240000"  style="stroke:black; stroke-linecap:round; stroke-width:0.25;"/>
<line x1="113.120000" y1="42.240000" x2="117.120000" y2="42.240000"  style="stroke:black; stroke-linecap:round; stroke-width:0.25;"/>
<line x1="113.120000" y1="50.240000" x2="117.120000" y2="50.240000"  style="stroke:black; stroke-linecap:round; stroke-width:0.25;"/>
<line x1="113.120000" y1="58.240000" x2="117.120000" y2="58.240000"  style="stroke:black; stroke-linecap:round; stroke-width:0.25;"/>
<line x1="113.120000" y1="66.240000" x2="117.120000" y2="66.240000"  style="stroke:black; stroke-linecap:round; stroke-width:0.25;"/>
<line x1="113.120000" y1="74.240000" x2="117.120000" y2="74.240000"  style="stroke:black; stroke-linecap:round; stroke-width:0.25;"/>
<line x1="113.120000" y1="82.240000" x2="117.120000" y2="82.240000"  style="stroke:black; stroke-linecap:round; stroke-width:0.25;"/>
<line x1="117.120000" y1="26.240000" x2="127.120000" y2="26.240000"  style="stroke:black; stroke-linecap:round; stroke-width:0.25;"/>
<line x1="117.120000" y1="34.240000" x2="127.120000" y2="34.240000"  style="stroke:black; stroke-linecap:round; stroke-width:0.25;"/>
<line x1="117.120000" y1="42.240000" x2="127.120000" y2="42.240000"  style="stroke:black; stroke-linecap:round; stroke-width:0.25;"/>
<line x1="117.120000" y1="50.240000" x2="127.120000" y2="50.240000"  style="stroke:black; stroke-linecap:round; stroke-width:0.25;"/>
<line x1="117.120000" y1="58.240000" x2="127.120000" y2="58.240000"  style="stroke:black; stroke-linecap:round; stroke-width:0.25;"/>
<line x1="117.120000" y1="66.240000" x2="127.120000" y2="66.240000"  style="stroke:black; stroke-linecap:round; stroke-width:0.25;"/>
<line x1="117.120000" y1="74.240000" x2="127.120000" y2="74.240000"  style="stroke:black; stroke-linecap:round; stroke-width:0.25;"/>
<line x1="117.120000" y1="82.240000" x2="127.120000" y2="82.240000"  style="stroke:black; stroke-linecap:round; stroke-width:0.25;"/>
</svg>
