<?xml version="1.0"?>
<svg xmlns="http://www.w3.org/2000/svg" xmlns:xlink="http://www.w3.org/1999/xlink" viewBox="0 0 279.000000 224.000000" width="139.500000mm" height="112.000000mm" version="1.1">
<rect x="1.000000" y="1.000000" width="278.000000" height="223.000000" rx="0" ry="0" style="stroke:none;fill:#cccccc;"/>
<rect x="0.000000" y="0.000000" width="278.000000" height="223.000000" rx="0" ry="0" style="stroke:none;fill:#ffffff;"/>
<text x="10.000000" y="7.000000" font-family="Arial" font-size="7"></text>
<rect x="101.000000" y="35.000000" width="129.000000" height="24.000000" rx="0" ry="0" style="stroke:none;fill:#cccccc;"/>
<rect x="100.000000" y="34.000000" width="129.000000" height="24.000000" rx="0" ry="0" style="stroke:none;fill:#477881;"/>
<text x="164.500000" y="48.000000" font-family="Arial" font-size="7" text-anchor="middle" fill="#FFFFFF">hbargraph(test, 0.0f, 100.0f)</text>
<circle cx="102.000000" cy="36.000000" r="1"/>
<line x1="97.000000" y1="45.000000" x2="100.000000" y2="46.000000"  transform="rotate(0.000000,100.000000,46.000000)" style="stroke: black; stroke-width:0.25;"/>
<line x1="97.000000" y1="47.000000" x2="100.000000" y2="46.000000"  transform="rotate(0.000000,100.000000,46.000000)" style="stroke: black; stroke-width:0.25;"/>
<line x1="91.000000" y1="25.000000" x2="91.000000" y2="67.000000"  style="stroke: black; stroke-linecap:round; stroke-width:0.25; stroke-dasharray:3,3;"/>
<line x1="91.000000" y1="67.000000" x2="238.000000" y2="67.000000"  style="stroke: black; stroke-linecap:round; stroke-width:0.25; stroke-dasharray:3,3;"/>
<line x1="238.000000" y1="67.000000" x2="238.000000" y2="25.000000"  style="stroke: black; stroke-linecap:round; stroke-width:0.25; stroke-dasharray:3,3;"/>
<line x1="91.000000" y1="25.000000" x2="96.000000" y2="25.000000"  style="stroke: black; stroke-linecap:round; stroke-width:0.25; stroke-dasharray:3,3;"/>
<line x1="112.125000" y1="25.000000" x2="238.000000" y2="25.000000"  style="stroke: black; stroke-linecap:round; stroke-width:0.25; stroke-dasharray:3,3;"/>
<text x="96.000000" y="27.000000" font-family="Arial" font-size="7">cut</text>
<rect x="133.500000" y="85.000000" width="24.000000" height="24.000000" rx="0" ry="0" style="stroke:none;fill:#cccccc;"/>
<rect x="132.500000" y="84.000000" width="24.000000" height="24.000000" rx="0" ry="0" style="stroke:none;fill:#f44800;"/>
<text x="144.500000" y="98.000000" font-family="Arial" font-size="7" text-anchor="middle" fill="#FFFFFF">0.5</text>
<circle cx="134.500000" cy="86.000000" r="1"/>
<rect x="173.500000" y="81.000000" width="24.000000" height="24.000000" rx="0" ry="0" style="stroke:none;fill:#cccccc;"/>
<rect x="172.500000" y="80.000000" width="24.000000" height="24.000000" rx="0" ry="0" style="stroke:none;fill:#4B71A1;"/>
<text x="184.500000" y="94.000000" font-family="Arial" font-size="7" text-anchor="middle" fill="#FFFFFF">*</text>
<circle cx="174.500000" cy="82.000000" r="1"/>
<line x1="169.500000" y1="87.000000" x2="172.500000" y2="88.000000"  transform="rotate(0.000000,172.500000,88.000000)" style="stroke: black; stroke-width:0.25;"/>
<line x1="169.500000" y1="89.000000" x2="172.500000" y2="88.000000"  transform="rotate(0.000000,172.500000,88.000000)" style="stroke: black; stroke-width:0.25;"/>
<line x1="169.500000" y1="95.000000" x2="172.500000" y2="96.000000"  transform="rotate(0.000000,172.500000,96.000000)" style="stroke: black; stroke-width:0.25;"/>
<line x1="169.500000" y1="97.000000" x2="172.500000" y2="96.000000"  transform="rotate(0.000000,172.500000,96.000000)" style="stroke: black; stroke-width:0.25;"/>
<rect x="133.500000" y="125.000000" width="24.000000" height="24.000000" rx="0" ry="0" style="stroke:none;fill:#cccccc;"/>
<rect x="132.500000" y="124.000000" width="24.000000" height="24.000000" rx="0" ry="0" style="stroke:none;fill:#f44800;"/>
<text x="144.500000" y="138.000000" font-family="Arial" font-size="7" text-anchor="middle" fill="#FFFFFF">0.3</text>
<circle cx="134.500000" cy="126.000000" r="1"/>
<rect x="173.500000" y="121.000000" width="24.000000" height="24.000000" rx="0" ry="0" style="stroke:none;fill:#cccccc;"/>
<rect x="172.500000" y="120.000000" width="24.000000" height="24.000000" rx="0" ry="0" style="stroke:none;fill:#4B71A1;"/>
<text x="184.500000" y="134.000000" font-family="Arial" font-size="7" text-anchor="middle" fill="#FFFFFF">*</text>
<circle cx="174.500000" cy="122.000000" r="1"/>
<line x1="169.500000" y1="127.000000" x2="172.500000" y2="128.000000"  transform="rotate(0.000000,172.500000,128.000000)" style="stroke: black; stroke-width:0.25;"/>
<line x1="169.500000" y1="129.000000" x2="172.500000" y2="128.000000"  transform="rotate(0.000000,172.500000,128.000000)" style="stroke: black; stroke-width:0.25;"/>
<line x1="169.500000" y1="135.000000" x2="172.500000" y2="136.000000"  transform="rotate(0.000000,172.500000,136.000000)" style="stroke: black; stroke-width:0.25;"/>
<line x1="169.500000" y1="137.000000" x2="172.500000" y2="136.000000"  transform="rotate(0.000000,172.500000,136.000000)" style="stroke: black; stroke-width:0.25;"/>
<rect x="101.000000" y="167.000000" width="129.000000" height="24.000000" rx="0" ry="0" style="stroke:none;fill:#cccccc;"/>
<rect x="100.000000" y="166.000000" width="129.000000" height="24.000000" rx="0" ry="0" style="stroke:none;fill:#477881;"/>
<text x="164.500000" y="180.000000" font-family="Arial" font-size="7" text-anchor="middle" fill="#FFFFFF">hbargraph(test2, 0.0f, 100.0f)</text>
<circle cx="102.000000" cy="168.000000" r="1"/>
<line x1="97.000000" y1="177.000000" x2="100.000000" y2="178.000000"  transform="rotate(0.000000,100.000000,178.000000)" style="stroke: black; stroke-width:0.25;"/>
<line x1="97.000000" y1="179.000000" x2="100.000000" y2="178.000000"  transform="rotate(0.000000,100.000000,178.000000)" style="stroke: black; stroke-width:0.25;"/>
<line x1="91.000000" y1="157.000000" x2="91.000000" y2="199.000000"  style="stroke: black; stroke-linecap:round; stroke-width:0.25; stroke-dasharray:3,3;"/>
<line x1="91.000000" y1="199.000000" x2="238.000000" y2="199.000000"  style="stroke: black; stroke-linecap:round; stroke-width:0.25; stroke-dasharray:3,3;"/>
<line x1="238.000000" y1="199.000000" x2="238.000000" y2="157.000000"  style="stroke: black; stroke-linecap:round; stroke-width:0.25; stroke-dasharray:3,3;"/>
<line x1="91.000000" y1="157.000000" x2="96.000000" y2="157.000000"  style="stroke: black; stroke-linecap:round; stroke-width:0.25; stroke-dasharray:3,3;"/>
<line x1="115.350000" y1="157.000000" x2="238.000000" y2="157.000000"  style="stroke: black; stroke-linecap:round; stroke-width:0.25; stroke-dasharray:3,3;"/>
<text x="96.000000" y="159.000000" font-family="Arial" font-size="7">cut2</text>
<line x1="15.000000" y1="15.000000" x2="15.000000" y2="209.000000"  style="stroke: black; stroke-linecap:round; stroke-width:0.25; stroke-dasharray:3,3;"/>
<line x1="15.000000" y1="209.000000" x2="264.000000" y2="209.000000"  style="stroke: black; stroke-linecap:round; stroke-width:0.25; stroke-dasharray:3,3;"/>
<line x1="264.000000" y1="209.000000" x2="264.000000" y2="15.000000"  style="stroke: black; stroke-linecap:round; stroke-width:0.25; stroke-dasharray:3,3;"/>
<line x1="15.000000" y1="15.000000" x2="20.000000" y2="15.000000"  style="stroke: black; stroke-linecap:round; stroke-width:0.25; stroke-dasharray:3,3;"/>
<line x1="49.025000" y1="15.000000" x2="264.000000" y2="15.000000"  style="stroke: black; stroke-linecap:round; stroke-width:0.25; stroke-dasharray:3,3;"/>
<text x="20.000000" y="17.000000" font-family="Arial" font-size="7">process</text>
<line x1="266.000000" y1="107.000000" x2="269.000000" y2="108.000000"  transform="rotate(0.000000,269.000000,108.000000)" style="stroke: black; stroke-width:0.25;"/>
<line x1="266.000000" y1="109.000000" x2="269.000000" y2="108.000000"  transform="rotate(0.000000,269.000000,108.000000)" style="stroke: black; stroke-width:0.25;"/>
<line x1="266.000000" y1="115.000000" x2="269.000000" y2="116.000000"  transform="rotate(0.000000,269.000000,116.000000)" style="stroke: black; stroke-width:0.25;"/>
<line x1="266.000000" y1="117.000000" x2="269.000000" y2="116.000000"  transform="rotate(0.000000,269.000000,116.000000)" style="stroke: black; stroke-width:0.25;"/>
<line x1="10.000000" y1="108.000000" x2="20.000000" y2="108.000000"  style="stroke:black; stroke-linecap:round; stroke-width:0.25;"/>
<line x1="10.000000" y1="116.000000" x2="20.000000" y2="116.000000"  style="stroke:black; stroke-linecap:round; stroke-width:0.25;"/>
<line x1="20.000000" y1="108.000000" x2="24.000000" y2="108.000000"  style="stroke:black; stroke-linecap:round; stroke-width:0.25;"/>
<line x1="20.000000" y1="116.000000" x2="24.000000" y2="116.000000"  style="stroke:black; stroke-linecap:round; stroke-width:0.25;"/>
<line x1="24.000000" y1="108.000000" x2="28.000000" y2="108.000000"  style="stroke:black; stroke-linecap:round; stroke-width:0.25;"/>
<line x1="24.000000" y1="116.000000" x2="28.000000" y2="116.000000"  style="stroke:black; stroke-linecap:round; stroke-width:0.25;"/>
<line x1="28.000000" y1="108.000000" x2="28.000000" y2="108.000000"  style="stroke:black; stroke-linecap:round; stroke-width:0.25;"/>
<line x1="28.000000" y1="108.000000" x2="32.000000" y2="108.000000"  style="stroke:black; stroke-linecap:round; stroke-width:0.25;"/>
<line x1="28.000000" y1="116.000000" x2="28.000000" y2="116.000000"  style="stroke:black; stroke-linecap:round; stroke-width:0.25;"/>
<line x1="28.000000" y1="116.000000" x2="32.000000" y2="116.000000"  style="stroke:black; stroke-linecap:round; stroke-width:0.25;"/>
<line x1="32.000000" y1="108.000000" x2="36.000000" y2="108.000000"  style="stroke:black; stroke-linecap:round; stroke-width:0.25;"/>
<line x1="32.000000" y1="116.000000" x2="36.000000" y2="116.000000"  style="stroke:black; stroke-linecap:round; stroke-width:0.25;"/>
<line x1="36.000000" y1="108.000000" x2="86.000000" y2="46.000000"  style="stroke:black; stroke-linecap:round; stroke-width:0.25;"/>
<line x1="36.000000" y1="108.000000" x2="86.000000" y2="116.000000"  style="stroke:black; stroke-linecap:round; stroke-width:0.25;"/>
<line x1="36.000000" y1="116.000000" x2="86.000000" y2="76.000000"  style="stroke:black; stroke-linecap:round; stroke-width:0.25;"/>
<line x1="36.000000" y1="116.000000" x2="86.000000" y2="178.000000"  style="stroke:black; stroke-linecap:round; stroke-width:0.25;"/>
<line x1="86.000000" y1="46.000000" x2="96.000000" y2="46.000000"  style="stroke:black; stroke-linecap:round; stroke-width:0.25;"/>
<line x1="86.000000" y1="76.000000" x2="128.500000" y2="76.000000"  style="stroke:black; stroke-linecap:round; stroke-width:0.25;"/>
<line x1="86.000000" y1="116.000000" x2="128.500000" y2="116.000000"  style="stroke:black; stroke-linecap:round; stroke-width:0.25;"/>
<line x1="86.000000" y1="178.000000" x2="96.000000" y2="178.000000"  style="stroke:black; stroke-linecap:round; stroke-width:0.25;"/>
<line x1="96.000000" y1="46.000000" x2="100.000000" y2="46.000000"  style="stroke:black; stroke-linecap:round; stroke-width:0.25;"/>
<line x1="96.000000" y1="178.000000" x2="100.000000" y2="178.000000"  style="stroke:black; stroke-linecap:round; stroke-width:0.25;"/>
<line x1="128.500000" y1="76.000000" x2="144.500000" y2="76.000000"  style="stroke:black; stroke-linecap:round; stroke-width:0.25;"/>
<line x1="128.500000" y1="116.000000" x2="144.500000" y2="116.000000"  style="stroke:black; stroke-linecap:round; stroke-width:0.25;"/>
<line x1="144.500000" y1="76.000000" x2="160.500000" y2="76.000000"  style="stroke:black; stroke-linecap:round; stroke-width:0.25;"/>
<line x1="144.500000" y1="116.000000" x2="160.500000" y2="116.000000"  style="stroke:black; stroke-linecap:round; stroke-width:0.25;"/>
<line x1="156.500000" y1="96.000000" x2="160.500000" y2="96.000000"  style="stroke:black; stroke-linecap:round; stroke-width:0.25;"/>
<line x1="156.500000" y1="136.000000" x2="160.500000" y2="136.000000"  style="stroke:black; stroke-linecap:round; stroke-width:0.25;"/>
<line x1="160.500000" y1="76.000000" x2="168.500000" y2="76.000000"  style="stroke:black; stroke-linecap:round; stroke-width:0.25;"/>
<line x1="160.500000" y1="96.000000" x2="168.500000" y2="96.000000"  style="stroke:black; stroke-linecap:round; stroke-width:0.25;"/>
<line x1="160.500000" y1="116.000000" x2="168.500000" y2="116.000000"  style="stroke:black; stroke-linecap:round; stroke-width:0.25;"/>
<line x1="160.500000" y1="136.000000" x2="168.500000" y2="136.000000"  style="stroke:black; stroke-linecap:round; stroke-width:0.25;"/>
<line x1="168.500000" y1="76.000000" x2="168.500000" y2="88.000000"  style="stroke:black; stroke-linecap:round; stroke-width:0.25;"/>
<line x1="168.500000" y1="88.000000" x2="168.500000" y2="88.000000"  style="stroke:black; stroke-linecap:round; stroke-width:0.25;"/>
<line x1="168.500000" y1="88.000000" x2="172.500000" y2="88.000000"  style="stroke:black; stroke-linecap:round; stroke-width:0.25;"/>
<line x1="168.500000" y1="96.000000" x2="172.500000" y2="96.000000"  style="stroke:black; stroke-linecap:round; stroke-width:0.25;"/>
<line x1="168.500000" y1="116.000000" x2="168.500000" y2="128.000000"  style="stroke:black; stroke-linecap:round; stroke-width:0.25;"/>
<line x1="168.500000" y1="128.000000" x2="168.500000" y2="128.000000"  style="stroke:black; stroke-linecap:round; stroke-width:0.25;"/>
<line x1="168.500000" y1="128.000000" x2="172.500000" y2="128.000000"  style="stroke:black; stroke-linecap:round; stroke-width:0.25;"/>
<line x1="168.500000" y1="136.000000" x2="172.500000" y2="136.000000"  style="stroke:black; stroke-linecap:round; stroke-width:0.25;"/>
<line x1="196.500000" y1="92.000000" x2="200.500000" y2="92.000000"  style="stroke:black; stroke-linecap:round; stroke-width:0.25;"/>
<line x1="196.500000" y1="132.000000" x2="200.500000" y2="132.000000"  style="stroke:black; stroke-linecap:round; stroke-width:0.25;"/>
<line x1="200.500000" y1="92.000000" x2="243.000000" y2="92.000000"  style="stroke:black; stroke-linecap:round; stroke-width:0.25;"/>
<line x1="200.500000" y1="132.000000" x2="243.000000" y2="132.000000"  style="stroke:black; stroke-linecap:round; stroke-width:0.25;"/>
<line x1="243.000000" y1="92.000000" x2="251.000000" y2="92.000000"  style="stroke:black; stroke-linecap:round; stroke-width:0.25;"/>
<line x1="243.000000" y1="116.000000" x2="251.000000" y2="116.000000"  style="stroke:black; stroke-linecap:round; stroke-width:0.25;"/>
<line x1="243.000000" y1="132.000000" x2="243.000000" y2="116.000000"  style="stroke:black; stroke-linecap:round; stroke-width:0.25;"/>
<line x1="243.000000" y1="132.000000" x2="243.000000" y2="132.000000"  style="stroke:black; stroke-linecap:round; stroke-width:0.25;"/>
<line x1="251.000000" y1="92.000000" x2="251.000000" y2="108.000000"  style="stroke:black; stroke-linecap:round; stroke-width:0.25;"/>
<line x1="251.000000" y1="108.000000" x2="251.000000" y2="108.000000"  style="stroke:black; stroke-linecap:round; stroke-width:0.25;"/>
<line x1="251.000000" y1="108.000000" x2="255.000000" y2="108.000000"  style="stroke:black; stroke-linecap:round; stroke-width:0.25;"/>
<line x1="251.000000" y1="116.000000" x2="255.000000" y2="116.000000"  style="stroke:black; stroke-linecap:round; stroke-width:0.25;"/>
<line x1="255.000000" y1="108.000000" x2="259.000000" y2="108.000000"  style="stroke:black; stroke-linecap:round; stroke-width:0.25;"/>
<line x1="255.000000" y1="116.000000" x2="259.000000" y2="116.000000"  style="stroke:black; stroke-linecap:round; stroke-width:0.25;"/>
<line x1="259.000000" y1="108.000000" x2="269.000000" y2="108.000000"  style="stroke:black; stroke-linecap:round; stroke-width:0.25;"/>
<line x1="259.000000" y1="116.000000" x2="269.000000" y2="116.000000"  style="stroke:black; stroke-linecap:round; stroke-width:0.25;"/>
</svg>
