<?xml version="1.0"?>
<svg xmlns="http://www.w3.org/2000/svg" xmlns:xlink="http://www.w3.org/1999/xlink" viewBox="0 0 168.040000 120.160000" width="84.020000mm" height="60.080000mm" version="1.1">
<rect x="1.000000" y="1.000000" width="167.040000" height="119.160000" rx="0" ry="0" style="stroke:none;fill:#cccccc;"/>
<rect x="0.000000" y="0.000000" width="167.040000" height="119.160000" rx="0" ry="0" style="stroke:none;fill:#ffffff;"/>
<text x="10.000000" y="7.000000" font-family="Arial" font-size="7"></text>
<rect x="65.040000" y="33.080000" width="24.000000" height="24.000000" rx="0" ry="0" style="stroke:none;fill:#cccccc;"/>
<rect x="64.040000" y="32.080000" width="24.000000" height="24.000000" rx="0" ry="0" style="stroke:none;fill:#f44800;"/>
<text x="76.040000" y="46.080000" font-family="Arial" font-size="7" text-anchor="middle" fill="#FFFFFF">0.5</text>
<circle cx="66.040000" cy="34.080000" r="1"/>
<rect x="105.040000" y="29.080000" width="24.000000" height="24.000000" rx="0" ry="0" style="stroke:none;fill:#cccccc;"/>
<rect x="104.040000" y="28.080000" width="24.000000" height="24.000000" rx="0" ry="0" style="stroke:none;fill:#4B71A1;"/>
<text x="116.040000" y="42.080000" font-family="Arial" font-size="7" text-anchor="middle" fill="#FFFFFF">*</text>
<circle cx="106.040000" cy="30.080000" r="1"/>
<line x1="101.040000" y1="35.080000" x2="104.040000" y2="36.080000"  transform="rotate(0.000000,104.040000,36.080000)" style="stroke: black; stroke-width:0.25;"/>
<line x1="101.040000" y1="37.080000" x2="104.040000" y2="36.080000"  transform="rotate(0.000000,104.040000,36.080000)" style="stroke: black; stroke-width:0.25;"/>
<line x1="101.040000" y1="43.080000" x2="104.040000" y2="44.080000"  transform="rotate(0.000000,104.040000,44.080000)" style="stroke: black; stroke-width:0.25;"/>
<line x1="101.040000" y1="45.080000" x2="104.040000" y2="44.080000"  transform="rotate(0.000000,104.040000,44.080000)" style="stroke: black; stroke-width:0.25;"/>
<rect x="65.040000" y="73.080000" width="24.000000" height="24.000000" rx="0" ry="0" style="stroke:none;fill:#cccccc;"/>
<rect x="64.040000" y="72.080000" width="24.000000" height="24.000000" rx="0" ry="0" style="stroke:none;fill:#f44800;"/>
<text x="76.040000" y="86.080000" font-family="Arial" font-size="7" text-anchor="middle" fill="#FFFFFF">0.3</text>
<circle cx="66.040000" cy="74.080000" r="1"/>
<rect x="105.040000" y="69.080000" width="24.000000" height="24.000000" rx="0" ry="0" style="stroke:none;fill:#cccccc;"/>
<rect x="104.040000" y="68.080000" width="24.000000" height="24.000000" rx="0" ry="0" style="stroke:none;fill:#4B71A1;"/>
<text x="116.040000" y="82.080000" font-family="Arial" font-size="7" text-anchor="middle" fill="#FFFFFF">*</text>
<circle cx="106.040000" cy="70.080000" r="1"/>
<line x1="101.040000" y1="75.080000" x2="104.040000" y2="76.080000"  transform="rotate(0.000000,104.040000,76.080000)" style="stroke: black; stroke-width:0.25;"/>
<line x1="101.040000" y1="77.080000" x2="104.040000" y2="76.080000"  transform="rotate(0.000000,104.040000,76.080000)" style="stroke: black; stroke-width:0.25;"/>
<line x1="101.040000" y1="83.080000" x2="104.040000" y2="84.080000"  transform="rotate(0.000000,104.040000,84.080000)" style="stroke: black; stroke-width:0.25;"/>
<line x1="101.040000" y1="85.080000" x2="104.040000" y2="84.080000"  transform="rotate(0.000000,104.040000,84.080000)" style="stroke: black; stroke-width:0.25;"/>
<line x1="15.000000" y1="15.000000" x2="15.000000" y2="105.160000"  style="stroke: black; stroke-linecap:round; stroke-width:0.25; stroke-dasharray:3,3;"/>
<line x1="15.000000" y1="105.160000" x2="153.040000" y2="105.160000"  style="stroke: black; stroke-linecap:round; stroke-width:0.25; stroke-dasharray:3,3;"/>
<line x1="153.040000" y1="105.160000" x2="153.040000" y2="15.000000"  style="stroke: black; stroke-linecap:round; stroke-width:0.25; stroke-dasharray:3,3;"/>
<line x1="15.000000" y1="15.000000" x2="20.000000" y2="15.000000"  style="stroke: black; stroke-linecap:round; stroke-width:0.25; stroke-dasharray:3,3;"/>
<line x1="49.025000" y1="15.000000" x2="153.040000" y2="15.000000"  style="stroke: black; stroke-linecap:round; stroke-width:0.25; stroke-dasharray:3,3;"/>
<text x="20.000000" y="17.000000" font-family="Arial" font-size="7">process</text>
<line x1="155.040000" y1="55.080000" x2="158.040000" y2="56.080000"  transform="rotate(0.000000,158.040000,56.080000)" style="stroke: black; stroke-width:0.25;"/>
<line x1="155.040000" y1="57.080000" x2="158.040000" y2="56.080000"  transform="rotate(0.000000,158.040000,56.080000)" style="stroke: black; stroke-width:0.25;"/>
<line x1="155.040000" y1="63.080000" x2="158.040000" y2="64.080000"  transform="rotate(0.000000,158.040000,64.080000)" style="stroke: black; stroke-width:0.25;"/>
<line x1="155.040000" y1="65.080000" x2="158.040000" y2="64.080000"  transform="rotate(0.000000,158.040000,64.080000)" style="stroke: black; stroke-width:0.25;"/>
<line x1="10.000000" y1="56.080000" x2="20.000000" y2="56.080000"  style="stroke:black; stroke-linecap:round; stroke-width:0.25;"/>
<line x1="10.000000" y1="64.080000" x2="20.000000" y2="64.080000"  style="stroke:black; stroke-linecap:round; stroke-width:0.25;"/>
<line x1="20.000000" y1="56.080000" x2="24.000000" y2="56.080000"  style="stroke:black; stroke-linecap:round; stroke-width:0.25;"/>
<line x1="20.000000" y1="64.080000" x2="24.000000" y2="64.080000"  style="stroke:black; stroke-linecap:round; stroke-width:0.25;"/>
<line x1="24.000000" y1="56.080000" x2="28.000000" y2="56.080000"  style="stroke:black; stroke-linecap:round; stroke-width:0.25;"/>
<line x1="24.000000" y1="64.080000" x2="28.000000" y2="64.080000"  style="stroke:black; stroke-linecap:round; stroke-width:0.25;"/>
<line x1="28.000000" y1="56.080000" x2="28.000000" y2="56.080000"  style="stroke:black; stroke-linecap:round; stroke-width:0.25;"/>
<line x1="28.000000" y1="56.080000" x2="32.000000" y2="56.080000"  style="stroke:black; stroke-linecap:round; stroke-width:0.25;"/>
<line x1="28.000000" y1="64.080000" x2="28.000000" y2="64.080000"  style="stroke:black; stroke-linecap:round; stroke-width:0.25;"/>
<line x1="28.000000" y1="64.080000" x2="32.000000" y2="64.080000"  style="stroke:black; stroke-linecap:round; stroke-width:0.25;"/>
<line x1="32.000000" y1="56.080000" x2="36.000000" y2="56.080000"  style="stroke:black; stroke-linecap:round; stroke-width:0.25;"/>
<line x1="32.000000" y1="64.080000" x2="36.000000" y2="64.080000"  style="stroke:black; stroke-linecap:round; stroke-width:0.25;"/>
<line x1="36.000000" y1="56.080000" x2="60.040000" y2="64.080000"  style="stroke:black; stroke-linecap:round; stroke-width:0.25;"/>
<line x1="36.000000" y1="64.080000" x2="60.040000" y2="24.080000"  style="stroke:black; stroke-linecap:round; stroke-width:0.25;"/>
<line x1="60.040000" y1="24.080000" x2="76.040000" y2="24.080000"  style="stroke:black; stroke-linecap:round; stroke-width:0.25;"/>
<line x1="60.040000" y1="64.080000" x2="76.040000" y2="64.080000"  style="stroke:black; stroke-linecap:round; stroke-width:0.25;"/>
<line x1="76.040000" y1="24.080000" x2="92.040000" y2="24.080000"  style="stroke:black; stroke-linecap:round; stroke-width:0.25;"/>
<line x1="76.040000" y1="64.080000" x2="92.040000" y2="64.080000"  style="stroke:black; stroke-linecap:round; stroke-width:0.25;"/>
<line x1="88.040000" y1="44.080000" x2="92.040000" y2="44.080000"  style="stroke:black; stroke-linecap:round; stroke-width:0.25;"/>
<line x1="88.040000" y1="84.080000" x2="92.040000" y2="84.080000"  style="stroke:black; stroke-linecap:round; stroke-width:0.25;"/>
<line x1="92.040000" y1="24.080000" x2="100.040000" y2="24.080000"  style="stroke:black; stroke-linecap:round; stroke-width:0.25;"/>
<line x1="92.040000" y1="44.080000" x2="100.040000" y2="44.080000"  style="stroke:black; stroke-linecap:round; stroke-width:0.25;"/>
<line x1="92.040000" y1="64.080000" x2="100.040000" y2="64.080000"  style="stroke:black; stroke-linecap:round; stroke-width:0.25;"/>
<line x1="92.040000" y1="84.080000" x2="100.040000" y2="84.080000"  style="stroke:black; stroke-linecap:round; stroke-width:0.25;"/>
<line x1="100.040000" y1="24.080000" x2="100.040000" y2="36.080000"  style="stroke:black; stroke-linecap:round; stroke-width:0.25;"/>
<line x1="100.040000" y1="36.080000" x2="100.040000" y2="36.080000"  style="stroke:black; stroke-linecap:round; stroke-width:0.25;"/>
<line x1="100.040000" y1="36.080000" x2="104.040000" y2="36.080000"  style="stroke:black; stroke-linecap:round; stroke-width:0.25;"/>
<line x1="100.040000" y1="44.080000" x2="104.040000" y2="44.080000"  style="stroke:black; stroke-linecap:round; stroke-width:0.25;"/>
<line x1="100.040000" y1="64.080000" x2="100.040000" y2="76.080000"  style="stroke:black; stroke-linecap:round; stroke-width:0.25;"/>
<line x1="100.040000" y1="76.080000" x2="100.040000" y2="76.080000"  style="stroke:black; stroke-linecap:round; stroke-width:0.25;"/>
<line x1="100.040000" y1="76.080000" x2="104.040000" y2="76.080000"  style="stroke:black; stroke-linecap:round; stroke-width:0.25;"/>
<line x1="100.040000" y1="84.080000" x2="104.040000" y2="84.080000"  style="stroke:black; stroke-linecap:round; stroke-width:0.25;"/>
<line x1="128.040000" y1="40.080000" x2="132.040000" y2="40.080000"  style="stroke:black; stroke-linecap:round; stroke-width:0.25;"/>
<line x1="128.040000" y1="80.080000" x2="132.040000" y2="80.080000"  style="stroke:black; stroke-linecap:round; stroke-width:0.25;"/>
<line x1="132.040000" y1="40.080000" x2="140.040000" y2="40.080000"  style="stroke:black; stroke-linecap:round; stroke-width:0.25;"/>
<line x1="132.040000" y1="64.080000" x2="140.040000" y2="64.080000"  style="stroke:black; stroke-linecap:round; stroke-width:0.25;"/>
<line x1="132.040000" y1="80.080000" x2="132.040000" y2="64.080000"  style="stroke:black; stroke-linecap:round; stroke-width:0.25;"/>
<line x1="132.040000" y1="80.080000" x2="132.040000" y2="80.080000"  style="stroke:black; stroke-linecap:round; stroke-width:0.25;"/>
<line x1="140.040000" y1="40.080000" x2="140.040000" y2="56.080000"  style="stroke:black; stroke-linecap:round; stroke-width:0.25;"/>
<line x1="140.040000" y1="56.080000" x2="140.040000" y2="56.080000"  style="stroke:black; stroke-linecap:round; stroke-width:0.25;"/>
<line x1="140.040000" y1="56.080000" x2="144.040000" y2="56.080000"  style="stroke:black; stroke-linecap:round; stroke-width:0.25;"/>
<line x1="140.040000" y1="64.080000" x2="144.040000" y2="64.080000"  style="stroke:black; stroke-linecap:round; stroke-width:0.25;"/>
<line x1="144.040000" y1="56.080000" x2="148.040000" y2="56.080000"  style="stroke:black; stroke-linecap:round; stroke-width:0.25;"/>
<line x1="144.040000" y1="64.080000" x2="148.040000" y2="64.080000"  style="stroke:black; stroke-linecap:round; stroke-width:0.25;"/>
<line x1="148.040000" y1="56.080000" x2="158.040000" y2="56.080000"  style="stroke:black; stroke-linecap:round; stroke-width:0.25;"/>
<line x1="148.040000" y1="64.080000" x2="158.040000" y2="64.080000"  style="stroke:black; stroke-linecap:round; stroke-width:0.25;"/>
</svg>
