<?xml version="1.0"?>
<svg xmlns="http://www.w3.org/2000/svg" xmlns:xlink="http://www.w3.org/1999/xlink" viewBox="0 0 191.600000 160.000000" width="95.800000mm" height="80.000000mm" version="1.1">
<rect x="1.000000" y="1.000000" width="190.600000" height="159.000000" rx="0" ry="0" style="stroke:none;fill:#cccccc;"/>
<rect x="0.000000" y="0.000000" width="190.600000" height="159.000000" rx="0" ry="0" style="stroke:none;fill:#ffffff;"/>
<text x="10.000000" y="7.000000" font-family="Arial" font-size="7"></text>
<rect x="55.900000" y="103.000000" width="25.800000" height="24.000000" rx="0" ry="0" style="stroke:none;fill:#cccccc;"/>
<rect x="54.900000" y="102.000000" width="25.800000" height="24.000000" rx="0" ry="0" style="stroke:none;fill:#f44800;"/>
<text x="67.800000" y="116.000000" font-family="Arial" font-size="7" text-anchor="middle" fill="#FFFFFF">12345</text>
<circle cx="56.900000" cy="104.000000" r="1"/>
<rect x="97.700000" y="99.000000" width="24.000000" height="24.000000" rx="0" ry="0" style="stroke:none;fill:#cccccc;"/>
<rect x="96.700000" y="98.000000" width="24.000000" height="24.000000" rx="0" ry="0" style="stroke:none;fill:#4B71A1;"/>
<text x="108.700000" y="112.000000" font-family="Arial" font-size="7" text-anchor="middle" fill="#FFFFFF">+</text>
<circle cx="98.700000" cy="100.000000" r="1"/>
<line x1="93.700000" y1="105.000000" x2="96.700000" y2="106.000000"  transform="rotate(0.000000,96.700000,106.000000)" style="stroke: black; stroke-width:0.25;"/>
<line x1="93.700000" y1="107.000000" x2="96.700000" y2="106.000000"  transform="rotate(0.000000,96.700000,106.000000)" style="stroke: black; stroke-width:0.25;"/>
<line x1="93.700000" y1="113.000000" x2="96.700000" y2="114.000000"  transform="rotate(0.000000,96.700000,114.000000)" style="stroke: black; stroke-width:0.25;"/>
<line x1="93.700000" y1="115.000000" x2="96.700000" y2="114.000000"  transform="rotate(0.000000,96.700000,114.000000)" style="stroke: black; stroke-width:0.25;"/>
<line x1="45.900000" y1="85.000000" x2="45.900000" y2="135.000000"  style="stroke: black; stroke-linecap:round; stroke-width:0.25; stroke-dasharray:3,3;"/>
<line x1="45.900000" y1="135.000000" x2="129.700000" y2="135.000000"  style="stroke: black; stroke-linecap:round; stroke-width:0.25; stroke-dasharray:3,3;"/>
<line x1="129.700000" y1="135.000000" x2="129.700000" y2="85.000000"  style="stroke: black; stroke-linecap:round; stroke-width:0.25; stroke-dasharray:3,3;"/>
<line x1="45.900000" y1="85.000000" x2="50.900000" y2="85.000000"  style="stroke: black; stroke-linecap:round; stroke-width:0.25; stroke-dasharray:3,3;"/>
<line x1="60.575000" y1="85.000000" x2="129.700000" y2="85.000000"  style="stroke: black; stroke-linecap:round; stroke-width:0.25; stroke-dasharray:3,3;"/>
<text x="50.900000" y="87.000000" font-family="Arial" font-size="7">A</text>
<rect x="83.000000" y="35.000000" width="51.600000" height="24.000000" rx="0" ry="0" style="stroke:none;fill:#cccccc;"/>
<rect x="82.000000" y="34.000000" width="51.600000" height="24.000000" rx="0" ry="0" style="stroke:none;fill:#f44800;"/>
<text x="107.800000" y="48.000000" font-family="Arial" font-size="7" text-anchor="middle" fill="#FFFFFF">1103515245</text>
<circle cx="131.600000" cy="56.000000" r="1"/>
<rect x="43.000000" y="39.000000" width="24.000000" height="24.000000" rx="0" ry="0" style="stroke:none;fill:#cccccc;"/>
<rect x="42.000000" y="38.000000" width="24.000000" height="24.000000" rx="0" ry="0" style="stroke:none;fill:#4B71A1;"/>
<text x="54.000000" y="52.000000" font-family="Arial" font-size="7" text-anchor="middle" fill="#FFFFFF">*</text>
<circle cx="64.000000" cy="60.000000" r="1"/>
<line x1="69.000000" y1="53.000000" x2="66.000000" y2="54.000000"  transform="rotate(0.000000,66.000000,54.000000)" style="stroke: black; stroke-width:0.25;"/>
<line x1="69.000000" y1="55.000000" x2="66.000000" y2="54.000000"  transform="rotate(0.000000,66.000000,54.000000)" style="stroke: black; stroke-width:0.25;"/>
<line x1="69.000000" y1="45.000000" x2="66.000000" y2="46.000000"  transform="rotate(0.000000,66.000000,46.000000)" style="stroke: black; stroke-width:0.25;"/>
<line x1="69.000000" y1="47.000000" x2="66.000000" y2="46.000000"  transform="rotate(0.000000,66.000000,46.000000)" style="stroke: black; stroke-width:0.25;"/>
<line x1="33.000000" y1="25.000000" x2="33.000000" y2="75.000000"  style="stroke: black; stroke-linecap:round; stroke-width:0.25; stroke-dasharray:3,3;"/>
<line x1="33.000000" y1="75.000000" x2="142.600000" y2="75.000000"  style="stroke: black; stroke-linecap:round; stroke-width:0.25; stroke-dasharray:3,3;"/>
<line x1="142.600000" y1="75.000000" x2="142.600000" y2="25.000000"  style="stroke: black; stroke-linecap:round; stroke-width:0.25; stroke-dasharray:3,3;"/>
<line x1="33.000000" y1="25.000000" x2="38.000000" y2="25.000000"  style="stroke: black; stroke-linecap:round; stroke-width:0.25; stroke-dasharray:3,3;"/>
<line x1="47.675000" y1="25.000000" x2="142.600000" y2="25.000000"  style="stroke: black; stroke-linecap:round; stroke-width:0.25; stroke-dasharray:3,3;"/>
<text x="38.000000" y="27.000000" font-family="Arial" font-size="7">B</text>
<line x1="145.600000" y1="110.000000" x2="145.600000" y2="106.000000"  style="stroke:black; stroke-linecap:round; stroke-width:0.25;"/>
<line x1="145.600000" y1="106.000000" x2="149.600000" y2="106.000000"  style="stroke:black; stroke-linecap:round; stroke-width:0.25;"/>
<line x1="149.600000" y1="106.000000" x2="149.600000" y2="110.000000"  style="stroke:black; stroke-linecap:round; stroke-width:0.25;"/>
<line x1="15.000000" y1="15.000000" x2="15.000000" y2="145.000000"  style="stroke: black; stroke-linecap:round; stroke-width:0.25; stroke-dasharray:3,3;"/>
<line x1="15.000000" y1="145.000000" x2="176.600000" y2="145.000000"  style="stroke: black; stroke-linecap:round; stroke-width:0.25; stroke-dasharray:3,3;"/>
<line x1="176.600000" y1="145.000000" x2="176.600000" y2="15.000000"  style="stroke: black; stroke-linecap:round; stroke-width:0.25; stroke-dasharray:3,3;"/>
<line x1="15.000000" y1="15.000000" x2="20.000000" y2="15.000000"  style="stroke: black; stroke-linecap:round; stroke-width:0.25; stroke-dasharray:3,3;"/>
<line x1="49.025000" y1="15.000000" x2="176.600000" y2="15.000000"  style="stroke: black; stroke-linecap:round; stroke-width:0.25; stroke-dasharray:3,3;"/>
<text x="20.000000" y="17.000000" font-family="Arial" font-size="7">process</text>
<line x1="178.600000" y1="79.000000" x2="181.600000" y2="80.000000"  transform="rotate(0.000000,181.600000,80.000000)" style="stroke: black; stroke-width:0.25;"/>
<line x1="178.600000" y1="81.000000" x2="181.600000" y2="80.000000"  transform="rotate(0.000000,181.600000,80.000000)" style="stroke: black; stroke-width:0.25;"/>
<line x1="28.000000" y1="50.000000" x2="28.000000" y2="50.000000"  style="stroke:black; stroke-linecap:round; stroke-width:0.25;"/>
<line x1="28.000000" y1="50.000000" x2="28.000000" y2="94.000000"  style="stroke:black; stroke-linecap:round; stroke-width:0.25;"/>
<line x1="28.000000" y1="94.000000" x2="28.000000" y2="94.000000"  style="stroke:black; stroke-linecap:round; stroke-width:0.25;"/>
<line x1="28.000000" y1="94.000000" x2="40.900000" y2="94.000000"  style="stroke:black; stroke-linecap:round; stroke-width:0.25;"/>
<line x1="38.000000" y1="50.000000" x2="28.000000" y2="50.000000"  style="stroke:black; stroke-linecap:round; stroke-width:0.25;"/>
<line x1="40.900000" y1="94.000000" x2="50.900000" y2="94.000000"  style="stroke:black; stroke-linecap:round; stroke-width:0.25;"/>
<line x1="42.000000" y1="50.000000" x2="38.000000" y2="50.000000"  style="stroke:black; stroke-linecap:round; stroke-width:0.25;"/>
<line x1="50.900000" y1="94.000000" x2="67.800000" y2="94.000000"  style="stroke:black; stroke-linecap:round; stroke-width:0.25;"/>
<line x1="67.800000" y1="94.000000" x2="84.700000" y2="94.000000"  style="stroke:black; stroke-linecap:round; stroke-width:0.25;"/>
<line x1="70.000000" y1="46.000000" x2="66.000000" y2="46.000000"  style="stroke:black; stroke-linecap:round; stroke-width:0.25;"/>
<line x1="70.000000" y1="54.000000" x2="66.000000" y2="54.000000"  style="stroke:black; stroke-linecap:round; stroke-width:0.25;"/>
<line x1="70.000000" y1="54.000000" x2="70.000000" y2="54.000000"  style="stroke:black; stroke-linecap:round; stroke-width:0.25;"/>
<line x1="70.000000" y1="66.000000" x2="70.000000" y2="54.000000"  style="stroke:black; stroke-linecap:round; stroke-width:0.25;"/>
<line x1="78.000000" y1="46.000000" x2="70.000000" y2="46.000000"  style="stroke:black; stroke-linecap:round; stroke-width:0.25;"/>
<line x1="78.000000" y1="66.000000" x2="70.000000" y2="66.000000"  style="stroke:black; stroke-linecap:round; stroke-width:0.25;"/>
<line x1="80.700000" y1="114.000000" x2="84.700000" y2="114.000000"  style="stroke:black; stroke-linecap:round; stroke-width:0.25;"/>
<line x1="82.000000" y1="46.000000" x2="78.000000" y2="46.000000"  style="stroke:black; stroke-linecap:round; stroke-width:0.25;"/>
<line x1="84.700000" y1="94.000000" x2="92.700000" y2="94.000000"  style="stroke:black; stroke-linecap:round; stroke-width:0.25;"/>
<line x1="84.700000" y1="114.000000" x2="92.700000" y2="114.000000"  style="stroke:black; stroke-linecap:round; stroke-width:0.25;"/>
<line x1="92.700000" y1="94.000000" x2="92.700000" y2="106.000000"  style="stroke:black; stroke-linecap:round; stroke-width:0.25;"/>
<line x1="92.700000" y1="106.000000" x2="92.700000" y2="106.000000"  style="stroke:black; stroke-linecap:round; stroke-width:0.25;"/>
<line x1="92.700000" y1="106.000000" x2="96.700000" y2="106.000000"  style="stroke:black; stroke-linecap:round; stroke-width:0.25;"/>
<line x1="92.700000" y1="114.000000" x2="96.700000" y2="114.000000"  style="stroke:black; stroke-linecap:round; stroke-width:0.25;"/>
<line x1="107.800000" y1="66.000000" x2="78.000000" y2="66.000000"  style="stroke:black; stroke-linecap:round; stroke-width:0.25;"/>
<line x1="120.700000" y1="110.000000" x2="124.700000" y2="110.000000"  style="stroke:black; stroke-linecap:round; stroke-width:0.25;"/>
<line x1="124.700000" y1="110.000000" x2="134.700000" y2="110.000000"  style="stroke:black; stroke-linecap:round; stroke-width:0.25;"/>
<line x1="134.700000" y1="110.000000" x2="147.600000" y2="110.000000"  style="stroke:black; stroke-linecap:round; stroke-width:0.25;"/>
<line x1="137.600000" y1="66.000000" x2="107.800000" y2="66.000000"  style="stroke:black; stroke-linecap:round; stroke-width:0.25;"/>
<line x1="147.600000" y1="66.000000" x2="137.600000" y2="66.000000"  style="stroke:black; stroke-linecap:round; stroke-width:0.25;"/>
<line x1="147.600000" y1="66.000000" x2="147.600000" y2="66.000000"  style="stroke:black; stroke-linecap:round; stroke-width:0.25;"/>
<line x1="147.600000" y1="106.000000" x2="147.600000" y2="66.000000"  style="stroke:black; stroke-linecap:round; stroke-width:0.25;"/>
<line x1="147.600000" y1="110.000000" x2="149.600000" y2="110.000000"  style="stroke:black; stroke-linecap:round; stroke-width:0.25;"/>
<line x1="149.600000" y1="110.000000" x2="155.600000" y2="110.000000"  style="stroke:black; stroke-linecap:round; stroke-width:0.25;"/>
<line x1="155.600000" y1="80.000000" x2="163.600000" y2="80.000000"  style="stroke:black; stroke-linecap:round; stroke-width:0.25;"/>
<line x1="155.600000" y1="110.000000" x2="155.600000" y2="80.000000"  style="stroke:black; stroke-linecap:round; stroke-width:0.25;"/>
<line x1="155.600000" y1="110.000000" x2="155.600000" y2="110.000000"  style="stroke:black; stroke-linecap:round; stroke-width:0.25;"/>
<line x1="163.600000" y1="80.000000" x2="167.600000" y2="80.000000"  style="stroke:black; stroke-linecap:round; stroke-width:0.25;"/>
<line x1="167.600000" y1="80.000000" x2="171.600000" y2="80.000000"  style="stroke:black; stroke-linecap:round; stroke-width:0.25;"/>
<line x1="171.600000" y1="80.000000" x2="181.600000" y2="80.000000"  style="stroke:black; stroke-linecap:round; stroke-width:0.25;"/>
</svg>
