<?xml version="1.0" encoding="UTF-8" standalone="no"?>
<!DOCTYPE svg PUBLIC "-//W3C//DTD SVG 1.1//EN" "http://www.w3.org/Graphics/SVG/1.1/DTD/svg11.dtd">
<svg width="100%" height="100%" viewBox="0 0 2302 1305" version="1.1" xmlns="http://www.w3.org/2000/svg" xmlns:xlink="http://www.w3.org/1999/xlink" xml:space="preserve" xmlns:serif="http://www.serif.com/" style="fill-rule:evenodd;clip-rule:evenodd;stroke-linecap:round;stroke-linejoin:round;stroke-miterlimit:10;">
    <g transform="matrix(4.166667,0,0,4.166667,0,-53.523333)">
        <rect x="295.716" y="143.765" width="35.434" height="38.369" style="fill:white;stroke:black;stroke-width:0.8px;"/>
    </g>
    <g transform="matrix(1,0,0,1,944.9745,426.054516)">
        <text x="298.413px" y="158.42px" style="font-family:'ArialMT', 'Arial', sans-serif;font-size:33.333px;">from: <tspan x="385.438px " y="158.42px ">.</tspan>..</text>
        <text x="298.413px" y="208.42px" style="font-family:'ArialMT', 'Arial', sans-serif;font-size:33.333px;">to: ...</text>
        <g transform="matrix(33.333333,0,0,33.333333,403.995057,258.420484)">
        </g>
        <text x="298.413px" y="258.42px" style="font-family:'ArialMT', 'Arial', sans-serif;font-size:33.333px;">size: ...</text>
    </g>
    <g transform="matrix(4.166667,0,0,4.166667,0,3.485)">
        <rect x="300.89" y="136.924" width="35.434" height="38.369" style="fill:white;stroke:black;stroke-width:0.8px;"/>
    </g>
    <g transform="matrix(1,0,0,1,961.358833,447.717682)">
        <text x="303.587px" y="165.261px" style="font-family:'ArialMT', 'Arial', sans-serif;font-size:33.333px;">from: <tspan x="390.608px " y="165.261px ">.</tspan>..</text>
        <text x="303.587px" y="215.261px" style="font-family:'ArialMT', 'Arial', sans-serif;font-size:33.333px;">to: ...</text>
        <g transform="matrix(33.333333,0,0,33.333333,409.169057,265.261484)">
        </g>
        <text x="303.587px" y="265.261px" style="font-family:'ArialMT', 'Arial', sans-serif;font-size:33.333px;">size: ...</text>
    </g>
    <g transform="matrix(4.166667,0,0,4.166667,0,55.46)">
        <rect x="306.019" y="130.687" width="35.434" height="38.369" style="fill:white;stroke:black;stroke-width:0.8px;"/>
    </g>
    <g transform="matrix(1,0,0,1,977.600667,467.468182)">
        <text x="308.716px" y="171.498px" style="font-family:'ArialMT', 'Arial', sans-serif;font-size:33.333px;">from: <tspan x="395.737px " y="171.498px ">.</tspan>..</text>
        <text x="308.716px" y="221.498px" style="font-family:'ArialMT', 'Arial', sans-serif;font-size:33.333px;">to: ...</text>
        <g transform="matrix(33.333333,0,0,33.333333,414.298057,271.498484)">
        </g>
        <text x="308.716px" y="271.498px" style="font-family:'ArialMT', 'Arial', sans-serif;font-size:33.333px;">size: ...</text>
    </g>
    <g transform="matrix(4.166667,0,0,4.166667,0,108.985)">
        <rect x="312.442" y="124.264" width="35.434" height="38.369" style="fill:white;stroke:black;stroke-width:0.8px;"/>
    </g>
    <g transform="matrix(4.166667,0,0,4.166667,0,19.08125)">
        <path d="M262.784,37.1L273.484,37.1L273.484,271.374L262.784,271.374" style="fill:none;fill-rule:nonzero;stroke:rgb(140,140,140);stroke-width:0.8px;"/>
    </g>
    <g transform="matrix(4.166667,0,0,4.166667,0,27.729167)">
        <path d="M285.392,150.949L289.892,153.199L285.392,155.449C286.517,154.324 286.517,152.074 285.392,150.949Z" style="fill:rgb(140,140,140);"/>
    </g>
    <g transform="matrix(4.166667,0,0,4.166667,0,27.729167)">
        <path d="M278.973,153.199L286.292,153.199" style="fill:none;fill-rule:nonzero;stroke:rgb(140,140,140);stroke-width:1.5px;"/>
    </g>
    <g transform="matrix(4.166667,0,0,4.166667,0,27.729167)">
        <path d="M285.392,150.949L289.892,153.199L285.392,155.449C286.517,154.324 286.517,152.074 285.392,150.949Z" style="fill:rgb(140,140,140);"/>
    </g>
    <g transform="matrix(4.166667,0,0,4.166667,0,27.729167)">
        <path d="M278.973,153.199L286.292,153.199" style="fill:none;fill-rule:nonzero;stroke:rgb(140,140,140);stroke-width:1.5px;"/>
    </g>
    <g transform="matrix(4.166667,0,0,4.166667,0,27.729167)">
        <path d="M359.318,150.949L363.818,153.199L359.318,155.449C360.443,154.324 360.443,152.074 359.318,150.949Z" style="fill:rgb(140,140,140);"/>
    </g>
    <g transform="matrix(4.166667,0,0,4.166667,0,27.729167)">
        <path d="M352.898,153.199L360.218,153.199" style="fill:none;fill-rule:nonzero;stroke:rgb(140,140,140);stroke-width:1.5px;"/>
    </g>
    <g transform="matrix(4.166667,0,0,4.166667,0,27.729167)">
        <path d="M483.142,150.949L487.642,153.199L483.142,155.449C484.267,154.324 484.267,152.074 483.142,150.949Z" style="fill:rgb(140,140,140);"/>
    </g>
    <g transform="matrix(4.166667,0,0,4.166667,0,27.729167)">
        <path d="M476.722,153.199L484.042,153.199" style="fill:none;fill-rule:nonzero;stroke:rgb(140,140,140);stroke-width:1.5px;"/>
    </g>
    <g transform="matrix(4.166667,0,0,4.166667,0,-899.989167)">
        <rect x="118.406" y="257.191" width="36.73" height="14.668" style="fill:white;stroke:black;stroke-width:0.8px;"/>
    </g>
    <g transform="matrix(4.166667,0,0,4.166667,0,136.4775)">
        <rect x="118.045" y="132.815" width="36.73" height="14.668" style="fill:white;stroke:black;stroke-width:0.8px;"/>
    </g>
    <g transform="matrix(4.166667,0,0,4.166667,0,-650.505833)">
        <rect x="54.455" y="227.253" width="36.73" height="14.668" style="fill:white;stroke:black;stroke-width:0.8px;"/>
    </g>
    <g transform="matrix(4.166667,0,0,4.166667,0,385.9525)">
        <rect x="48.303" y="102.878" width="36.73" height="14.668" style="fill:white;stroke:black;stroke-width:0.8px;"/>
    </g>
    <g transform="matrix(4.166667,0,0,4.166667,0,385.9525)">
        <rect x="191.216" y="102.878" width="36.73" height="14.668" style="fill:white;stroke:black;stroke-width:0.8px;"/>
    </g>
    <g transform="matrix(4.166667,0,0,4.166667,0,-650.505833)">
        <rect x="187.997" y="227.253" width="36.73" height="14.668" style="fill:white;stroke:black;stroke-width:0.8px;"/>
    </g>
    <g transform="matrix(4.166667,0,0,4.166667,0,-644.914167)">
        <rect x="117.958" y="226.582" width="36.73" height="14.668" style="fill:white;stroke:black;stroke-width:0.8px;"/>
    </g>
    <g transform="matrix(4.166667,0,0,4.166667,0,-468.155833)">
        <rect x="32.625" y="205.371" width="36.73" height="14.668" style="fill:white;stroke:black;stroke-width:0.8px;"/>
    </g>
    <g transform="matrix(4.166667,0,0,4.166667,0,568.310833)">
        <rect x="17.771" y="80.995" width="36.73" height="14.668" style="fill:white;stroke:black;stroke-width:0.8px;"/>
    </g>
    <g transform="matrix(4.166667,0,0,4.166667,0,568.310833)">
        <rect x="160.683" y="80.995" width="36.73" height="14.668" style="fill:white;stroke:black;stroke-width:0.8px;"/>
    </g>
    <g transform="matrix(4.166667,0,0,4.166667,0,568.310833)">
        <rect x="77.419" y="80.995" width="36.73" height="14.668" style="fill:white;stroke:black;stroke-width:0.8px;"/>
    </g>
    <g transform="matrix(4.166667,0,0,4.166667,0,568.310833)">
        <rect x="220.331" y="80.995" width="36.73" height="14.668" style="fill:white;stroke:black;stroke-width:0.8px;"/>
    </g>
    <g transform="matrix(4.166667,0,0,4.166667,0,-468.155833)">
        <rect x="166.167" y="205.371" width="36.73" height="14.668" style="fill:white;stroke:black;stroke-width:0.8px;"/>
    </g>
    <g transform="matrix(4.166667,0,0,4.166667,0,-468.155833)">
        <rect x="72.372" y="205.371" width="36.73" height="14.668" style="fill:white;stroke:black;stroke-width:0.8px;"/>
    </g>
    <g transform="matrix(4.166667,0,0,4.166667,0,-468.155833)">
        <rect x="205.913" y="205.371" width="36.73" height="14.668" style="fill:white;stroke:black;stroke-width:0.8px;"/>
    </g>
    <g transform="matrix(4.166667,0,0,4.166667,0,-468.105833)">
        <rect x="118.406" y="205.365" width="36.73" height="14.668" style="fill:white;stroke:black;stroke-width:0.8px;"/>
    </g>
    <g transform="matrix(4.166667,0,0,4.166667,0,-291.3475)">
        <rect x="33.074" y="184.154" width="36.73" height="14.668" style="fill:white;stroke:black;stroke-width:0.8px;"/>
    </g>
    <g transform="matrix(4.166667,0,0,4.166667,0,737.904167)">
        <rect x="7.252" y="60.644" width="27.97" height="14.668" style="fill:white;stroke:black;stroke-width:0.8px;"/>
    </g>
    <g transform="matrix(4.166667,0,0,4.166667,0,737.904167)">
        <rect x="150.164" y="60.644" width="27.97" height="14.668" style="fill:white;stroke:black;stroke-width:0.8px;"/>
    </g>
    <g transform="matrix(4.166667,0,0,4.166667,0,737.904167)">
        <rect x="66.899" y="60.644" width="27.971" height="14.668" style="fill:white;stroke:black;stroke-width:0.8px;"/>
    </g>
    <g transform="matrix(4.166667,0,0,4.166667,0,737.904167)">
        <rect x="209.812" y="60.644" width="27.97" height="14.668" style="fill:white;stroke:black;stroke-width:0.8px;"/>
    </g>
    <g transform="matrix(4.166667,0,0,4.166667,0,737.904167)">
        <rect x="37.173" y="60.644" width="27.97" height="14.668" style="fill:rgb(217,217,217);stroke:black;stroke-width:0.8px;"/>
    </g>
    <g transform="matrix(4.166667,0,0,4.166667,0,737.904167)">
        <rect x="180.085" y="60.644" width="27.97" height="14.668" style="fill:rgb(217,217,217);stroke:black;stroke-width:0.8px;"/>
    </g>
    <g transform="matrix(4.166667,0,0,4.166667,0,737.904167)">
        <rect x="96.821" y="60.644" width="27.971" height="14.668" style="fill:rgb(217,217,217);stroke:black;stroke-width:0.8px;"/>
    </g>
    <g transform="matrix(4.166667,0,0,4.166667,0,737.904167)">
        <rect x="239.733" y="60.644" width="27.97" height="14.668" style="fill:rgb(217,217,217);stroke:black;stroke-width:0.8px;"/>
    </g>
    <g transform="matrix(4.166667,0,0,4.166667,0,-291.3475)">
        <rect x="166.615" y="184.154" width="36.73" height="14.668" style="fill:white;stroke:black;stroke-width:0.8px;"/>
    </g>
    <g transform="matrix(4.166667,0,0,4.166667,0,-291.3475)">
        <rect x="72.82" y="184.154" width="36.73" height="14.668" style="fill:white;stroke:black;stroke-width:0.8px;"/>
    </g>
    <g transform="matrix(4.166667,0,0,4.166667,0,-291.3475)">
        <rect x="206.362" y="184.154" width="36.73" height="14.668" style="fill:white;stroke:black;stroke-width:0.8px;"/>
    </g>
    <g transform="matrix(4.166667,0,0,4.166667,0,-291.395833)">
        <path d="M146.587,184.16C147.389,184.16 148.158,184.478 148.726,185.046C149.293,185.613 149.611,186.382 149.611,187.184L149.611,195.804C149.611,196.606 149.293,197.375 148.726,197.942C148.158,198.509 147.389,198.828 146.587,198.828L127.534,198.828C126.732,198.828 125.963,198.509 125.396,197.942C124.828,197.375 124.51,196.606 124.51,195.804L124.51,187.184C124.51,186.382 124.828,185.613 125.396,185.046C125.963,184.478 126.732,184.16 127.534,184.16L146.587,184.16Z" style="fill:white;stroke:black;stroke-width:0.8px;"/>
    </g>
    <g transform="matrix(4.166667,0,0,4.166667,0,-114.6375)">
        <path d="M61.254,162.949C62.056,162.949 62.826,163.267 63.393,163.834C63.96,164.402 64.279,165.171 64.279,165.973L64.279,174.592C64.279,175.395 63.96,176.164 63.393,176.731C62.826,177.298 62.056,177.617 61.254,177.617L42.201,177.617C41.399,177.617 40.63,177.298 40.063,176.731C39.496,176.164 39.177,175.395 39.177,174.592L39.177,165.973C39.177,165.171 39.496,164.402 40.063,163.834C40.63,163.267 41.399,162.949 42.201,162.949L61.254,162.949Z" style="fill:white;stroke:black;stroke-width:0.8px;"/>
    </g>
    <g transform="matrix(4.166667,0,0,4.166667,0,921.824583)">
        <path d="M30.73,38.573C31.532,38.573 32.301,38.892 32.869,39.459C33.436,40.026 33.755,40.796 33.755,41.598L33.755,50.217C33.755,51.019 33.436,51.789 32.869,52.356C32.301,52.923 31.532,53.242 30.73,53.242L11.677,53.242C10.875,53.242 10.106,52.923 9.539,52.356C8.972,51.789 8.653,51.019 8.653,50.217L8.653,41.598C8.653,40.796 8.972,40.026 9.539,39.459C10.106,38.892 10.875,38.573 11.677,38.573L30.73,38.573Z" style="fill:white;stroke:black;stroke-width:0.8px;"/>
    </g>
    <g transform="matrix(4.166667,0,0,4.166667,0,921.824583)">
        <path d="M173.642,38.573C174.444,38.573 175.214,38.892 175.781,39.459C176.348,40.026 176.667,40.796 176.667,41.598L176.667,50.217C176.667,51.019 176.348,51.789 175.781,52.356C175.214,52.923 174.444,53.242 173.642,53.242L154.59,53.242C153.787,53.242 153.018,52.923 152.451,52.356C151.884,51.789 151.565,51.019 151.565,50.217L151.565,41.598C151.565,40.796 151.884,40.026 152.451,39.459C153.018,38.892 153.787,38.573 154.59,38.573L173.642,38.573Z" style="fill:white;stroke:black;stroke-width:0.8px;"/>
    </g>
    <g transform="matrix(4.166667,0,0,4.166667,0,921.824583)">
        <path d="M90.378,38.573C91.18,38.573 91.949,38.892 92.517,39.459C93.084,40.026 93.402,40.796 93.402,41.598L93.402,50.217C93.402,51.019 93.084,51.789 92.517,52.356C91.949,52.923 91.18,53.242 90.378,53.242L71.325,53.242C70.523,53.242 69.754,52.923 69.187,52.356C68.619,51.789 68.301,51.019 68.301,50.217L68.301,41.598C68.301,40.796 68.619,40.026 69.187,39.459C69.754,38.892 70.523,38.573 71.325,38.573L90.378,38.573Z" style="fill:white;stroke:black;stroke-width:0.8px;"/>
    </g>
    <g transform="matrix(4.166667,0,0,4.166667,0,921.824583)">
        <path d="M233.29,38.573C234.092,38.573 234.861,38.892 235.429,39.459C235.996,40.026 236.315,40.796 236.315,41.598L236.315,50.217C236.315,51.019 235.996,51.789 235.429,52.356C234.861,52.923 234.092,53.242 233.29,53.242L214.237,53.242C213.435,53.242 212.666,52.923 212.099,52.356C211.532,51.789 211.213,51.019 211.213,50.217L211.213,41.598C211.213,40.796 211.532,40.026 212.099,39.459C212.666,38.892 213.435,38.573 214.237,38.573L233.29,38.573Z" style="fill:white;stroke:black;stroke-width:0.8px;"/>
    </g>
    <g transform="matrix(4.166667,0,0,4.166667,0,560.026667)">
        <path d="M139.918,61.101C141.986,61.101 143.663,62.778 143.663,64.847L143.663,113.8C143.663,115.869 141.986,117.546 139.918,117.546L132.577,117.546C130.509,117.546 128.832,115.869 128.832,113.8L128.832,64.847C128.832,62.778 130.509,61.101 132.577,61.101L139.918,61.101Z" style="fill:white;stroke:rgb(140,140,140);stroke-width:0.8px;stroke-dasharray:0.8,0.8;"/>
    </g>
    <g transform="matrix(4.166667,0,0,4.166667,0,921.824583)">
        <path d="M61.368,38.573C62.171,38.573 62.94,38.892 63.507,39.459C64.074,40.026 64.393,40.796 64.393,41.598L64.393,50.217C64.393,51.019 64.074,51.789 63.507,52.356C62.94,52.923 62.171,53.242 61.368,53.242L42.316,53.242C41.514,53.242 40.744,52.923 40.177,52.356C39.61,51.789 39.291,51.019 39.291,50.217L39.291,41.598C39.291,40.796 39.61,40.026 40.177,39.459C40.744,38.892 41.514,38.573 42.316,38.573L61.368,38.573Z" style="fill:rgb(217,217,217);stroke:black;stroke-width:0.8px;"/>
    </g>
    <g transform="matrix(4.166667,0,0,4.166667,0,921.824583)">
        <path d="M204.28,38.573C205.083,38.573 205.852,38.892 206.419,39.459C206.986,40.026 207.305,40.796 207.305,41.598L207.305,50.217C207.305,51.019 206.986,51.789 206.419,52.356C205.852,52.923 205.083,53.242 204.28,53.242L185.228,53.242C184.426,53.242 183.656,52.923 183.089,52.356C182.522,51.789 182.203,51.019 182.203,50.217L182.203,41.598C182.203,40.796 182.522,40.026 183.089,39.459C183.656,38.892 184.426,38.573 185.228,38.573L204.28,38.573Z" style="fill:rgb(217,217,217);stroke:black;stroke-width:0.8px;"/>
    </g>
    <g transform="matrix(4.166667,0,0,4.166667,0,921.824583)">
        <path d="M121.016,38.573C121.818,38.573 122.588,38.892 123.155,39.459C123.722,40.026 124.041,40.796 124.041,41.598L124.041,50.217C124.041,51.019 123.722,51.789 123.155,52.356C122.588,52.923 121.818,53.242 121.016,53.242L101.964,53.242C101.161,53.242 100.392,52.923 99.825,52.356C99.258,51.789 98.939,51.019 98.939,50.217L98.939,41.598C98.939,40.796 99.258,40.026 99.825,39.459C100.392,38.892 101.161,38.573 101.964,38.573L121.016,38.573Z" style="fill:rgb(217,217,217);stroke:black;stroke-width:0.8px;"/>
    </g>
    <g transform="matrix(4.166667,0,0,4.166667,0,921.824583)">
        <path d="M263.928,38.573C264.731,38.573 265.5,38.892 266.067,39.459C266.634,40.026 266.953,40.796 266.953,41.598L266.953,50.217C266.953,51.019 266.634,51.789 266.067,52.356C265.5,52.923 264.731,53.242 263.928,53.242L244.876,53.242C244.074,53.242 243.304,52.923 242.737,52.356C242.17,51.789 241.851,51.019 241.851,50.217L241.851,41.598C241.851,40.796 242.17,40.026 242.737,39.459C243.304,38.892 244.074,38.573 244.876,38.573L263.928,38.573Z" style="fill:rgb(217,217,217);stroke:black;stroke-width:0.8px;"/>
    </g>
    <g transform="matrix(4.166667,0,0,4.166667,0,-114.6375)">
        <path d="M194.796,162.949C195.598,162.949 196.367,163.267 196.934,163.834C197.501,164.402 197.82,165.171 197.82,165.973L197.82,174.592C197.82,175.395 197.501,176.164 196.934,176.731C196.367,177.298 195.598,177.617 194.796,177.617L175.743,177.617C174.941,177.617 174.172,177.298 173.604,176.731C173.037,176.164 172.719,175.395 172.718,174.592L172.718,165.973C172.719,165.171 173.037,164.402 173.604,163.834C174.172,163.267 174.941,162.949 175.743,162.949L194.796,162.949Z" style="fill:white;stroke:black;stroke-width:0.8px;"/>
    </g>
    <g transform="matrix(4.166667,0,0,4.166667,0,-114.6375)">
        <path d="M101.001,162.949C101.803,162.949 102.572,163.267 103.139,163.834C103.707,164.402 104.025,165.171 104.025,165.973L104.025,174.592C104.025,175.395 103.707,176.164 103.139,176.731C102.572,177.298 101.803,177.617 101.001,177.617L81.948,177.617C81.146,177.617 80.377,177.298 79.809,176.731C79.242,176.164 78.924,175.395 78.924,174.592L78.924,165.973C78.924,165.171 79.242,164.402 79.809,163.834C80.377,163.267 81.146,162.949 81.948,162.949L101.001,162.949Z" style="fill:white;stroke:black;stroke-width:0.8px;"/>
    </g>
    <g transform="matrix(4.166667,0,0,4.166667,0,-114.6375)">
        <path d="M234.542,162.949C235.344,162.949 236.114,163.267 236.681,163.834C237.248,164.402 237.567,165.171 237.567,165.973L237.567,174.592C237.567,175.395 237.248,176.164 236.681,176.731C236.114,177.298 235.344,177.617 234.542,177.617L215.49,177.617C214.687,177.617 213.918,177.298 213.351,176.731C212.784,176.164 212.465,175.395 212.465,174.592L212.465,165.973C212.465,165.171 212.784,164.402 213.351,163.834C213.918,163.267 214.687,162.949 215.49,162.949L234.542,162.949Z" style="fill:white;stroke:black;stroke-width:0.8px;"/>
    </g>
    <g transform="matrix(0,4.166667,4.166667,0,-272.189583,-107.560417)">
        <path d="M133.502,202.097L140.039,202.097" style="fill:none;fill-rule:nonzero;stroke:black;stroke-width:0.8px;"/>
    </g>
    <g transform="matrix(0,4.166667,4.166667,0,-539.362917,336.37125)">
        <path d="M48.17,180.885L54.707,180.885" style="fill:none;fill-rule:nonzero;stroke:black;stroke-width:0.8px;"/>
    </g>
    <g transform="matrix(0,4.166667,4.166667,0,-150.118542,979.983125)">
        <path d="M17.213,56.943L24.615,56.943" style="fill:none;fill-rule:nonzero;stroke:black;stroke-width:0.8px;"/>
    </g>
    <g transform="matrix(0,4.166667,4.166667,0,445.346875,384.517708)">
        <path d="M160.125,56.943L167.527,56.943" style="fill:none;fill-rule:nonzero;stroke:black;stroke-width:0.8px;"/>
    </g>
    <g transform="matrix(0,4.166667,4.166667,0,98.414375,731.450208)">
        <path d="M76.861,56.943L84.263,56.943" style="fill:none;fill-rule:nonzero;stroke:black;stroke-width:0.8px;"/>
    </g>
    <g transform="matrix(0,4.166667,4.166667,0,693.880208,135.984375)">
        <path d="M219.773,56.943L227.175,56.943" style="fill:none;fill-rule:nonzero;stroke:black;stroke-width:0.8px;"/>
    </g>
    <g transform="matrix(0,4.166667,4.166667,0,-22.617708,852.482292)">
        <path d="M47.813,56.943L55.216,56.943" style="fill:none;fill-rule:nonzero;stroke:black;stroke-width:0.8px;"/>
    </g>
    <g transform="matrix(0,4.166667,4.166667,0,572.851042,257.013542)">
        <path d="M190.726,56.943L198.128,56.943" style="fill:none;fill-rule:nonzero;stroke:black;stroke-width:0.8px;"/>
    </g>
    <g transform="matrix(0,4.166667,4.166667,0,225.913542,603.951042)">
        <path d="M107.461,56.943L114.863,56.943" style="fill:none;fill-rule:nonzero;stroke:black;stroke-width:0.8px;"/>
    </g>
    <g transform="matrix(0,4.166667,4.166667,0,821.384375,8.480208)">
        <path d="M250.374,56.943L257.776,56.943" style="fill:none;fill-rule:nonzero;stroke:black;stroke-width:0.8px;"/>
    </g>
    <g transform="matrix(0,4.166667,4.166667,0,17.060417,-220.052083)">
        <path d="M181.712,180.885L188.249,180.885" style="fill:none;fill-rule:nonzero;stroke:black;stroke-width:0.8px;"/>
    </g>
    <g transform="matrix(0,4.166667,4.166667,0,-373.752083,170.760417)">
        <path d="M87.916,180.885L94.453,180.885" style="fill:none;fill-rule:nonzero;stroke:black;stroke-width:0.8px;"/>
    </g>
    <g transform="matrix(0,4.166667,4.166667,0,182.672917,-385.664583)">
        <path d="M221.458,180.885L227.995,180.885" style="fill:none;fill-rule:nonzero;stroke:black;stroke-width:0.8px;"/>
    </g>
    <g transform="matrix(0,4.166667,4.166667,0,-359.94375,-196.464583)">
        <path d="M133.646,223.296L140.172,223.296" style="fill:none;fill-rule:nonzero;stroke:black;stroke-width:0.8px;"/>
    </g>
    <g transform="matrix(0,4.166667,4.166667,0,-470.99375,-306.364583)">
        <path d="M129.39,249.81L144.153,249.81" style="fill:none;fill-rule:nonzero;stroke:black;stroke-width:0.8px;"/>
    </g>
    <g transform="matrix(0,4.166667,4.166667,0,-627.120417,247.470417)">
        <path d="M48.313,202.085L54.838,202.085" style="fill:none;fill-rule:nonzero;stroke:black;stroke-width:0.8px;"/>
    </g>
    <g transform="matrix(0,4.166667,4.166667,0,-70.697917,-308.952083)">
        <path d="M181.855,202.085L188.379,202.085" style="fill:none;fill-rule:nonzero;stroke:black;stroke-width:0.8px;"/>
    </g>
    <g transform="matrix(0,4.166667,4.166667,0,-461.509167,81.859167)">
        <path d="M88.06,202.085L94.585,202.085" style="fill:none;fill-rule:nonzero;stroke:black;stroke-width:0.8px;"/>
    </g>
    <g transform="matrix(0,4.166667,4.166667,0,94.914583,-474.564583)">
        <path d="M221.602,202.085L228.126,202.085" style="fill:none;fill-rule:nonzero;stroke:black;stroke-width:0.8px;"/>
    </g>
    <g transform="matrix(-3.948955,1.329234,1.329234,3.948955,204.681697,-594.024225)">
        <path d="M51.008,223.786L72.74,223.786" style="fill:none;fill-rule:nonzero;stroke:black;stroke-width:0.8px;"/>
    </g>
    <g transform="matrix(-3.783927,1.744423,1.744423,3.783927,84.122118,634.06461)">
        <path d="M21.125,78.224L34.363,78.224" style="fill:none;fill-rule:nonzero;stroke:black;stroke-width:0.8px;"/>
    </g>
    <g transform="matrix(-3.783932,1.744411,1.744411,3.783932,1220.362746,384.766472)">
        <path d="M164.037,78.224L177.275,78.224" style="fill:none;fill-rule:nonzero;stroke:black;stroke-width:0.8px;"/>
    </g>
    <g transform="matrix(-3.783927,1.744423,1.744423,3.783927,558.358305,530.013448)">
        <path d="M80.772,78.224L94.01,78.224" style="fill:none;fill-rule:nonzero;stroke:black;stroke-width:0.8px;"/>
    </g>
    <g transform="matrix(-3.783932,1.744411,1.744411,3.783932,1694.600058,280.715849)">
        <path d="M223.685,78.224L236.923,78.224" style="fill:none;fill-rule:nonzero;stroke:black;stroke-width:0.8px;"/>
    </g>
    <g transform="matrix(3.827745,1.64605,1.64605,-3.827745,-113.455976,1203.546104)">
        <path d="M38.142,78.224L52.171,78.224" style="fill:none;fill-rule:nonzero;stroke:black;stroke-width:0.8px;"/>
    </g>
    <g transform="matrix(3.827703,1.646147,1.646147,-3.827703,-65.019672,968.284055)">
        <path d="M181.054,78.224L195.083,78.224" style="fill:none;fill-rule:nonzero;stroke:black;stroke-width:0.8px;"/>
    </g>
    <g transform="matrix(3.827736,1.646072,1.646072,-3.827736,-93.24075,1105.35986)">
        <path d="M97.79,78.224L111.819,78.224" style="fill:none;fill-rule:nonzero;stroke:black;stroke-width:0.8px;"/>
    </g>
    <g transform="matrix(3.827749,1.646039,1.646039,-3.827749,-44.804395,870.12583)">
        <path d="M240.701,78.224L254.731,78.224" style="fill:none;fill-rule:nonzero;stroke:black;stroke-width:0.8px;"/>
    </g>
    <g transform="matrix(-3.948957,1.329229,1.329229,3.948957,1288.455288,-771.531408)">
        <path d="M184.549,223.786L206.282,223.786" style="fill:none;fill-rule:nonzero;stroke:black;stroke-width:0.8px;"/>
    </g>
    <g transform="matrix(3.917393,1.419559,1.419559,-3.917393,-297.302767,1132.570561)">
        <path d="M71.564,223.786L91.913,223.786" style="fill:none;fill-rule:nonzero;stroke:black;stroke-width:0.8px;"/>
    </g>
    <g transform="matrix(3.917353,1.419667,1.419667,-3.917353,-119.236796,1157.273257)">
        <path d="M76.042,99.13L96.392,99.13" style="fill:none;fill-rule:nonzero;stroke:black;stroke-width:0.8px;"/>
    </g>
    <g transform="matrix(3.917348,1.41968,1.41968,-3.917348,-83.607164,954.382563)">
        <path d="M218.954,99.13L239.304,99.13" style="fill:none;fill-rule:nonzero;stroke:black;stroke-width:0.8px;"/>
    </g>
    <g transform="matrix(-3.932878,1.376076,1.376076,3.932878,244.140958,435.653218)">
        <path d="M36.086,99.271L57.931,99.271" style="fill:none;fill-rule:nonzero;stroke:black;stroke-width:0.8px;"/>
    </g>
    <g transform="matrix(-3.932865,1.376112,1.376112,3.932865,1401.659538,238.989484)">
        <path d="M178.998,99.271L200.843,99.271" style="fill:none;fill-rule:nonzero;stroke:black;stroke-width:0.8px;"/>
    </g>
    <g transform="matrix(3.917388,1.419572,1.419572,-3.917388,-264.016258,942.996809)">
        <path d="M205.105,223.786L225.455,223.786" style="fill:none;fill-rule:nonzero;stroke:black;stroke-width:0.8px;"/>
    </g>
    <g transform="matrix(-3.904403,1.454905,1.454905,3.904403,432.333458,-855.291491)">
        <path d="M77.457,249.81L119.737,249.81" style="fill:none;fill-rule:nonzero;stroke:black;stroke-width:0.8px;"/>
    </g>
    <g transform="matrix(-4.036273,1.034219,1.034219,4.036273,661.821425,177.77481)">
        <path d="M65.706,125.18L127.222,125.18" style="fill:none;fill-rule:nonzero;stroke:black;stroke-width:0.8px;"/>
    </g>
    <g transform="matrix(0,4.166667,4.166667,0,45.8875,213.525)">
        <path d="M128.992,125.397L143.828,125.397" style="fill:none;fill-rule:nonzero;stroke:rgb(140,140,140);stroke-width:0.8px;stroke-dasharray:0.8,0.8;"/>
    </g>
    <g transform="matrix(3.91525,1.425457,1.425457,-3.91525,-311.991522,991.541239)">
        <path d="M153.834,249.81L196.987,249.81" style="fill:none;fill-rule:nonzero;stroke:black;stroke-width:0.8px;"/>
    </g>
    <g transform="matrix(4.044606,1.001136,1.001136,-4.044606,-103.556438,1110.58177)">
        <path d="M146.549,125.18L210.098,125.18" style="fill:none;fill-rule:nonzero;stroke:black;stroke-width:0.8px;"/>
    </g>
    <g transform="matrix(4.166667,0,0,4.166667,0,-17.483333)">
        <rect x="367.292" y="102.844" width="41.3" height="111.561" style="fill:white;stroke:black;stroke-width:0.8px;"/>
    </g>
    <g transform="matrix(4.166667,0,0,4.166667,0,-0.000833)">
        <rect x="424.162" y="79.647" width="41.3" height="153.76" style="fill:white;stroke:black;stroke-width:0.8px;"/>
    </g>
    <g transform="matrix(4.166667,0,0,4.166667,0,-535.454167)">
        <rect x="429.493" y="212.865" width="30.572" height="15.832" style="fill:white;stroke:black;stroke-width:0.8px;"/>
    </g>
    <g transform="matrix(4.166667,0,0,4.166667,0,76.754167)">
        <rect x="429.493" y="139.4" width="30.572" height="15.832" style="fill:white;stroke:black;stroke-width:0.8px;"/>
    </g>
    <g transform="matrix(4.166667,0,0,4.166667,0,-235.054167)">
        <rect x="429.493" y="176.817" width="30.572" height="15.832" style="fill:white;stroke:black;stroke-width:0.8px;"/>
    </g>
    <g transform="matrix(4.166667,0,0,4.166667,0,377.154167)">
        <rect x="429.493" y="103.352" width="30.572" height="15.832" style="fill:white;stroke:black;stroke-width:0.8px;"/>
    </g>
    <g transform="matrix(4.166667,0,0,4.166667,0,-385.1125)">
        <rect x="429.559" y="194.824" width="30.572" height="15.832" style="fill:rgb(208,208,208);stroke:black;stroke-width:0.8px;"/>
    </g>
    <g transform="matrix(4.166667,0,0,4.166667,0,227.0875)">
        <rect x="429.559" y="121.36" width="30.572" height="15.832" style="fill:rgb(208,208,208);stroke:black;stroke-width:0.8px;"/>
    </g>
    <g transform="matrix(4.166667,0,0,4.166667,0,-84.720833)">
        <rect x="429.559" y="158.777" width="30.572" height="15.832" style="fill:rgb(208,208,208);stroke:black;stroke-width:0.8px;"/>
    </g>
    <g transform="matrix(4.166667,0,0,4.166667,0,527.4875)">
        <rect x="429.559" y="85.312" width="30.572" height="15.832" style="fill:rgb(208,208,208);stroke:black;stroke-width:0.8px;"/>
    </g>
    <g transform="matrix(4.166667,0,0,4.166667,0,-383.0375)">
        <rect x="372.656" y="194.575" width="30.572" height="15.832" style="fill:white;stroke:black;stroke-width:0.8px;"/>
    </g>
    <g transform="matrix(4.166667,0,0,4.166667,0,-304.49125)">
        <rect x="495.445" y="177.665" width="44.833" height="30.801" style="fill:white;stroke:black;stroke-width:0.8px;"/>
    </g>
    <g transform="matrix(4.166667,0,0,4.166667,0,304.492083)">
        <rect x="496.522" y="104.587" width="44.833" height="30.801" style="fill:white;stroke:black;stroke-width:0.8px;"/>
    </g>
    <g transform="matrix(4.166667,0,0,4.166667,0,-223.3375)">
        <rect x="372.679" y="175.411" width="30.572" height="15.832" style="fill:white;stroke:black;stroke-width:0.8px;"/>
    </g>
    <g transform="matrix(4.166667,0,0,4.166667,0,-17.654167)">
        <rect x="372.862" y="150.729" width="30.572" height="15.832" style="fill:white;stroke:black;stroke-width:0.8px;"/>
    </g>
    <g transform="matrix(4.166667,0,0,4.166667,0,183.304167)">
        <rect x="372.723" y="126.614" width="30.572" height="15.832" style="fill:white;stroke:black;stroke-width:0.8px;"/>
    </g>
    <g transform="matrix(4.166667,0,0,4.166667,0,339.5125)">
        <rect x="372.723" y="107.869" width="30.572" height="15.832" style="fill:white;stroke:black;stroke-width:0.8px;"/>
    </g>
    <g transform="matrix(4.166667,0,0,4.166667,0,-517.125)">
        <path d="M424.509,217.067L429.493,216.382L427.05,220.781C427.343,219.217 426.072,217.36 424.509,217.067Z" style="fill:rgb(140,140,140);"/>
    </g>
    <g transform="matrix(1,0,0,1,997.937,487.804516)">
        <text x="315.138px" y="177.92px" style="font-family:'ArialMT', 'Arial', sans-serif;font-size:33.333px;">from: <tspan x="402.163px " y="177.92px ">.</tspan>..</text>
        <text x="315.138px" y="227.92px" style="font-family:'ArialMT', 'Arial', sans-serif;font-size:33.333px;">to: ...</text>
        <g transform="matrix(33.333333,0,0,33.333333,420.720057,277.920484)">
        </g>
        <text x="315.138px" y="277.92px" style="font-family:'ArialMT', 'Arial', sans-serif;font-size:33.333px;">size: ...</text>
    </g>
    <g transform="matrix(1,0,0,1,410.634333,142.894349)">
        <g transform="matrix(33.333333,0,0,33.333333,183.419078,69.001484)">
        </g>
        <text x="129.674px" y="69.001px" style="font-family:'ArialMT', 'Arial', sans-serif;font-size:33.333px;">dsp</text>
    </g>
    <g transform="matrix(1,0,0,1,409.491167,536.751682)">
        <g transform="matrix(33.333333,0,0,33.333333,183.058078,193.377484)">
        </g>
        <text x="129.313px" y="193.377px" style="font-family:'ArialMT', 'Arial', sans-serif;font-size:33.333px;">dsp</text>
    </g>
    <g transform="matrix(1,0,0,1,194.764567,237.694849)">
        <g transform="matrix(33.333333,0,0,33.333333,150.407933,98.938484)">
        </g>
        <text x="61.505px" y="98.938px" style="font-family:'ArialMT', 'Arial', sans-serif;font-size:33.333px;">fmosc</text>
    </g>
    <g transform="matrix(1,0,0,1,175.28355,631.552182)">
        <g transform="matrix(33.333333,0,0,33.333333,144.256033,223.314484)">
        </g>
        <text x="55.353px" y="223.314px" style="font-family:'ArialMT', 'Arial', sans-serif;font-size:33.333px;">fmosc</text>
    </g>
    <g transform="matrix(1,0,0,1,627.839167,631.552182)">
        <g transform="matrix(33.333333,0,0,33.333333,287.168333,223.314484)">
        </g>
        <text x="198.265px" y="223.314px" style="font-family:'ArialMT', 'Arial', sans-serif;font-size:33.333px;">fmosc</text>
    </g>
    <g transform="matrix(1,0,0,1,409.928167,237.694849)">
        <text x="402.763px" y="98.938px" style="font-family:'ArialMT', 'Arial', sans-serif;font-size:33.333px;">fmosc</text>
        <g transform="matrix(33.333333,0,0,33.333333,181.324333,101.738484)">
        </g>
        <text x="129.451px" y="101.738px" style="font-family:'ArialMT', 'Arial', sans-serif;font-size:33.333px;">osc</text>
    </g>
    <g transform="matrix(1,0,0,1,139.70605,306.991016)">
        <g transform="matrix(33.333333,0,0,33.333333,95.991033,120.821484)">
        </g>
        <text x="44.118px" y="120.821px" style="font-family:'ArialMT', 'Arial', sans-serif;font-size:33.333px;">osc</text>
    </g>
    <g transform="matrix(1,0,0,1,92.666483,700.846766)">
        <g transform="matrix(33.333333,0,0,33.333333,81.136433,245.196984)">
        </g>
        <text x="29.263px" y="245.197px" style="font-family:'ArialMT', 'Arial', sans-serif;font-size:33.333px;">osc</text>
    </g>
    <g transform="matrix(1,0,0,1,545.220833,700.846766)">
        <g transform="matrix(33.333333,0,0,33.333333,224.048333,245.196984)">
        </g>
        <text x="172.175px" y="245.197px" style="font-family:'ArialMT', 'Arial', sans-serif;font-size:33.333px;">osc</text>
    </g>
    <g transform="matrix(1,0,0,1,281.5515,700.846766)">
        <g transform="matrix(33.333333,0,0,33.333333,140.784333,245.196984)">
        </g>
        <text x="88.911px" y="245.197px" style="font-family:'ArialMT', 'Arial', sans-serif;font-size:33.333px;">osc</text>
    </g>
    <g transform="matrix(1,0,0,1,734.106167,700.846766)">
        <g transform="matrix(33.333333,0,0,33.333333,283.696333,245.196984)">
        </g>
        <text x="231.823px" y="245.197px" style="font-family:'ArialMT', 'Arial', sans-serif;font-size:33.333px;">osc</text>
    </g>
    <g transform="matrix(1,0,0,1,562.586833,306.991016)">
        <g transform="matrix(33.333333,0,0,33.333333,229.532333,120.821484)">
        </g>
        <text x="177.659px" y="120.821px" style="font-family:'ArialMT', 'Arial', sans-serif;font-size:33.333px;">osc</text>
    </g>
    <g transform="matrix(1,0,0,1,265.570283,306.991016)">
        <g transform="matrix(33.333333,0,0,33.333333,135.737633,120.821484)">
        </g>
        <text x="83.864px" y="120.821px" style="font-family:'ArialMT', 'Arial', sans-serif;font-size:33.333px;">osc</text>
    </g>
    <g transform="matrix(1,0,0,1,392.327833,306.991016)">
        <text x="513.531px" y="120.821px" style="font-family:'ArialMT', 'Arial', sans-serif;font-size:33.333px;">osc</text>
        <g transform="matrix(33.333333,0,0,33.333333,225.819927,120.846484)">
        </g>
        <text x="123.893px" y="120.846px" style="font-family:'ArialMT', 'Arial', sans-serif;font-size:33.333px;">phasor</text>
    </g>
    <g transform="matrix(1,0,0,1,122.1073,374.178182)">
        <g transform="matrix(33.333333,0,0,33.333333,140.487127,142.038484)">
        </g>
        <text x="38.56px" y="142.038px" style="font-family:'ArialMT', 'Arial', sans-serif;font-size:33.333px;">phasor</text>
    </g>
    <g transform="matrix(1,0,0,1,26.958087,765.292232)">
        <g transform="matrix(33.333333,0,0,33.333333,110.440007,265.548184)">
        </g>
        <text x="8.513px" y="265.548px" style="font-family:'ArialMT', 'Arial', sans-serif;font-size:33.333px;">phasor</text>
    </g>
    <g transform="matrix(1,0,0,1,479.5125,765.292232)">
        <g transform="matrix(33.333333,0,0,33.333333,253.351927,265.548184)">
        </g>
        <text x="151.425px" y="265.548px" style="font-family:'ArialMT', 'Arial', sans-serif;font-size:33.333px;">phasor</text>
    </g>
    <g transform="matrix(1,0,0,1,215.843167,765.292232)">
        <g transform="matrix(33.333333,0,0,33.333333,170.087927,265.548184)">
        </g>
        <text x="68.161px" y="265.548px" style="font-family:'ArialMT', 'Arial', sans-serif;font-size:33.333px;">phasor</text>
    </g>
    <g transform="matrix(1,0,0,1,668.397833,765.292232)">
        <g transform="matrix(33.333333,0,0,33.333333,312.999927,265.548184)">
        </g>
        <text x="211.073px" y="265.548px" style="font-family:'ArialMT', 'Arial', sans-serif;font-size:33.333px;">phasor</text>
    </g>
    <g transform="matrix(1,0,0,1,121.708933,765.292232)">
        <g transform="matrix(33.333333,0,0,33.333333,140.361327,265.548184)">
        </g>
        <text x="38.434px" y="265.548px" style="font-family:'ArialMT', 'Arial', sans-serif;font-size:33.333px;">phasor</text>
    </g>
    <g transform="matrix(1,0,0,1,574.2655,765.292232)">
        <g transform="matrix(33.333333,0,0,33.333333,283.273927,265.548184)">
        </g>
        <text x="181.347px" y="265.548px" style="font-family:'ArialMT', 'Arial', sans-serif;font-size:33.333px;">phasor</text>
    </g>
    <g transform="matrix(1,0,0,1,310.59395,765.292232)">
        <g transform="matrix(33.333333,0,0,33.333333,200.009227,265.548184)">
        </g>
        <text x="98.082px" y="265.548px" style="font-family:'ArialMT', 'Arial', sans-serif;font-size:33.333px;">phasor</text>
    </g>
    <g transform="matrix(1,0,0,1,763.147667,765.292232)">
        <g transform="matrix(33.333333,0,0,33.333333,342.920927,265.548184)">
        </g>
        <text x="240.994px" y="265.548px" style="font-family:'ArialMT', 'Arial', sans-serif;font-size:33.333px;">phasor</text>
    </g>
    <g transform="matrix(1,0,0,1,544.989667,374.178182)">
        <g transform="matrix(33.333333,0,0,33.333333,274.028927,142.038484)">
        </g>
        <text x="172.102px" y="142.038px" style="font-family:'ArialMT', 'Arial', sans-serif;font-size:33.333px;">phasor</text>
    </g>
    <g transform="matrix(1,0,0,1,247.97185,374.178182)">
        <g transform="matrix(33.333333,0,0,33.333333,180.233827,142.038484)">
        </g>
        <text x="78.307px" y="142.038px" style="font-family:'ArialMT', 'Arial', sans-serif;font-size:33.333px;">phasor</text>
    </g>
    <g transform="matrix(1,0,0,1,412.189167,374.178182)">
        <text x="470.511px" y="142.038px" style="font-family:'ArialMT', 'Arial', sans-serif;font-size:33.333px;">phasor</text>
        <g transform="matrix(33.333333,0,0,33.333333,195.043411,143.834318)">
        </g>
        <text x="130.165px" y="143.834px" style="font-family:'ArialMT', 'Arial', sans-serif;font-size:33.333px;">feed</text>
    </g>
    <g transform="matrix(1,0,0,1,141.968,442.711182)">
        <g transform="matrix(33.333333,0,0,33.333333,109.710411,163.680484)">
        </g>
        <text x="44.832px" y="163.68px" style="font-family:'ArialMT', 'Arial', sans-serif;font-size:33.333px;">feed</text>
    </g>
    <g transform="matrix(1,0,0,1,45.30835,836.567249)">
        <g transform="matrix(33.333333,0,0,33.333333,79.186311,288.056084)">
        </g>
        <text x="14.308px" y="288.056px" style="font-family:'ArialMT', 'Arial', sans-serif;font-size:33.333px;">feed</text>
    </g>
    <g transform="matrix(1,0,0,1,497.863333,836.567249)">
        <g transform="matrix(33.333333,0,0,33.333333,222.098411,288.056084)">
        </g>
        <text x="157.22px" y="288.056px" style="font-family:'ArialMT', 'Arial', sans-serif;font-size:33.333px;">feed</text>
    </g>
    <g transform="matrix(1,0,0,1,234.193367,836.567249)">
        <g transform="matrix(33.333333,0,0,33.333333,138.834211,288.056084)">
        </g>
        <text x="73.956px" y="288.056px" style="font-family:'ArialMT', 'Arial', sans-serif;font-size:33.333px;">feed</text>
    </g>
    <g transform="matrix(1,0,0,1,686.748667,836.567249)">
        <g transform="matrix(33.333333,0,0,33.333333,281.746411,288.056084)">
        </g>
        <text x="216.868px" y="288.056px" style="font-family:'ArialMT', 'Arial', sans-serif;font-size:33.333px;">feed</text>
    </g>
    <g transform="matrix(1,0,0,1,142.329633,836.567249)">
        <g transform="matrix(33.333333,0,0,33.333333,109.824611,288.056084)">
        </g>
        <text x="44.946px" y="288.056px" style="font-family:'ArialMT', 'Arial', sans-serif;font-size:33.333px;">feed</text>
    </g>
    <g transform="matrix(1,0,0,1,594.883667,836.567249)">
        <g transform="matrix(33.333333,0,0,33.333333,252.736411,288.056084)">
        </g>
        <text x="187.858px" y="288.056px" style="font-family:'ArialMT', 'Arial', sans-serif;font-size:33.333px;">feed</text>
    </g>
    <g transform="matrix(1,0,0,1,331.214333,836.567249)">
        <g transform="matrix(33.333333,0,0,33.333333,169.472411,288.056084)">
        </g>
        <text x="104.594px" y="288.056px" style="font-family:'ArialMT', 'Arial', sans-serif;font-size:33.333px;">feed</text>
    </g>
    <g transform="matrix(1,0,0,1,783.769,836.567249)">
        <g transform="matrix(33.333333,0,0,33.333333,312.384411,288.056084)">
        </g>
        <text x="247.506px" y="288.056px" style="font-family:'ArialMT', 'Arial', sans-serif;font-size:33.333px;">feed</text>
    </g>
    <g transform="matrix(1,0,0,1,564.851,442.711182)">
        <g transform="matrix(33.333333,0,0,33.333333,243.252411,163.680484)">
        </g>
        <text x="178.374px" y="163.68px" style="font-family:'ArialMT', 'Arial', sans-serif;font-size:33.333px;">feed</text>
    </g>
    <g transform="matrix(1,0,0,1,267.832233,442.711182)">
        <g transform="matrix(33.333333,0,0,33.333333,149.457011,163.680484)">
        </g>
        <text x="84.579px" y="163.68px" style="font-family:'ArialMT', 'Arial', sans-serif;font-size:33.333px;">feed</text>
    </g>
    <g transform="matrix(1,0,0,1,690.713333,442.711182)">
        <g transform="matrix(33.333333,0,0,33.333333,282.998411,163.680484)">
        </g>
        <text x="218.12px" y="163.68px" style="font-family:'ArialMT', 'Arial', sans-serif;font-size:33.333px;">feed</text>
    </g>
    <g transform="matrix(1,0,0,1,970.247667,916.451185)">
        <text x="306.394px" y="313.266px" style="font-family:'Arial-BoldMT', 'Arial', sans-serif;font-weight:700;font-size:33.333px;">Generate</text>
        <g transform="matrix(33.333333,0,0,33.333333,442.579078,363.266315)">
        </g>
        <text x="314.727px" y="363.266px" style="font-family:'Arial-BoldMT', 'Arial', sans-serif;font-weight:700;font-size:33.333px;">Patches</text>
    </g>
    <g transform="matrix(1,0,0,1,1277.281333,916.451185)">
        <text x="420.977px" y="313.266px" style="font-family:'Arial-BoldMT', 'Arial', sans-serif;font-weight:700;font-size:33.333px;">Apply</text>
        <g transform="matrix(33.333333,0,0,33.333333,531.203745,363.266315)">
        </g>
        <text x="403.352px" y="363.266px" style="font-family:'Arial-BoldMT', 'Arial', sans-serif;font-weight:700;font-size:33.333px;">Patches</text>
    </g>
    <g transform="matrix(1,0,0,1,1621.805167,916.451185)">
        <text x="512.149px" y="313.266px" style="font-family:'Arial-BoldMT', 'Arial', sans-serif;font-weight:700;font-size:33.333px;">Swap</text>
        <g transform="matrix(33.333333,0,0,33.333333,589.945745,363.266315)">
        </g>
        <text x="521.407px" y="363.266px" style="font-family:'Arial-BoldMT', 'Arial', sans-serif;font-weight:700;font-size:33.333px;">VMs</text>
    </g>
    <g transform="matrix(1,0,0,1,356.465333,916.451185)">
        <text x="129.268px" y="313.266px" style="font-family:'Arial-BoldMT', 'Arial', sans-serif;font-weight:700;font-size:33.333px;">Compare</text>
        <g transform="matrix(33.333333,0,0,33.333333,290.462141,363.266315)">
        </g>
        <text x="112.568px" y="363.266px" style="font-family:'Arial-BoldMT', 'Arial', sans-serif;font-weight:700;font-size:33.333px;">State T<tspan x="221.871px 234.844px " y="363.266px 363.266px ">re</tspan>es</text>
    </g>
    <g transform="matrix(1,0,0,1,39.319867,113.257219)">
        <g transform="matrix(33.333333,0,0,33.333333,190.286823,59.626115)">
        </g>
        <text x="12.417px" y="59.626px" style="font-family:'Arial-BoldMT', 'Arial', sans-serif;font-weight:700;font-size:33.333px;">V<tspan x="32.811px 51.35px " y="59.626px 59.626px ">er</tspan>sion 1-a</text>
    </g>
    <g transform="matrix(1,0,0,1,1175.188,249.566385)">
        <text x="371.112px" y="102.671px" style="font-family:'Arial-BoldMT', 'Arial', sans-serif;font-weight:700;font-size:33.333px;">Previous</text>
        <g transform="matrix(33.333333,0,0,33.333333,503.567078,152.671115)">
        </g>
        <text x="379.462px" y="152.671px" style="font-family:'Arial-BoldMT', 'Arial', sans-serif;font-weight:700;font-size:33.333px;">Storage</text>
    </g>
    <g transform="matrix(1,0,0,1,974.985,41.164762)">
        <text x="307.89px" y="35.985px" style="font-family:'Monaco';font-size:29.167px;">Compiler</text>
        <g transform="matrix(29.166667,0,0,29.166667,430.411598,85.985238)">
        </g>
        <text x="325.394px" y="85.985px" style="font-family:'Monaco';font-size:29.167px;">Thread</text>
    </g>
    <g transform="matrix(1,0,0,1,1179.811333,41.164762)">
        <text x="381.322px" y="35.985px" style="font-family:'Monaco';font-size:29.167px;">Audio</text>
        <g transform="matrix(29.166667,0,0,29.166667,477.589432,85.985238)">
        </g>
        <text x="372.572px" y="85.985px" style="font-family:'Monaco';font-size:29.167px;">Thread</text>
    </g>
    <g transform="matrix(1,0,0,1,1341.837,186.771385)">
        <text x="423.738px" y="82.841px" style="font-family:'Arial-BoldMT', 'Arial', sans-serif;font-weight:700;font-size:33.333px;">Upcoming</text>
        <g transform="matrix(33.333333,0,0,33.333333,567.268078,132.841115)">
        </g>
        <text x="443.163px" y="132.841px" style="font-family:'Arial-BoldMT', 'Arial', sans-serif;font-weight:700;font-size:33.333px;">Storage</text>
    </g>
    <g transform="matrix(1,0,0,1,38.627,529.556719)">
        <g transform="matrix(33.333333,0,0,33.333333,191.89094,191.089115)">
        </g>
        <text x="12.198px" y="191.089px" style="font-family:'Arial-BoldMT', 'Arial', sans-serif;font-weight:700;font-size:33.333px;">V<tspan x="32.592px 51.131px " y="191.089px 191.089px ">er</tspan>sion 2-b</text>
    </g>
    <g transform="matrix(1,0,0,1,1610.443167,339.208385)">
        <g transform="matrix(33.333333,0,0,33.333333,577.099411,130.979115)">
        </g>
        <text x="508.561px" y="130.979px" style="font-family:'Arial-BoldMT', 'Arial', sans-serif;font-weight:700;font-size:33.333px;">VM1</text>
    </g>
    <g transform="matrix(1,0,0,1,1613.8505,570.618885)">
        <g transform="matrix(33.333333,0,0,33.333333,578.175411,204.056115)">
        </g>
        <text x="509.637px" y="204.056px" style="font-family:'Arial-BoldMT', 'Arial', sans-serif;font-weight:700;font-size:33.333px;">VM2</text>
    </g>
    <g transform="matrix(3.438506,-2.35325,-2.35325,-3.438506,797.993174,2127.125297)">
        <path d="M400.656,210.743C400.656,210.743 420.646,210.744 428.999,210.743" style="fill:none;fill-rule:nonzero;stroke:rgb(140,140,140);stroke-width:1.5px;stroke-dasharray:1.5,1.5;"/>
    </g>
    <g transform="matrix(4.166667,0,0,4.166667,0,-232.241667)">
        <path d="M424.826,182.153L429.493,184.032L425.19,186.638C426.22,185.426 426.038,183.183 424.826,182.153Z" style="fill:rgb(140,140,140);"/>
    </g>
    <g transform="matrix(4.153058,-0.336483,-0.336483,-4.153058,67.401024,1441.368295)">
        <path d="M403.096,183.546C403.096,183.546 418.709,183.546 425.942,183.546" style="fill:none;fill-rule:nonzero;stroke:rgb(140,140,140);stroke-width:1.5px;stroke-dasharray:1.5,1.5;"/>
    </g>
    <g transform="matrix(4.166667,0,0,4.166667,0,96.041667)">
        <path d="M424.463,142.965L429.493,143.089L426.376,147.038C426.916,145.542 425.96,143.505 424.463,142.965Z" style="fill:rgb(140,140,140);"/>
    </g>
    <g transform="matrix(3.771715,-1.77067,-1.77067,-3.771715,411.605404,1983.377299)">
        <path d="M401.924,139.962C401.924,139.962 419.652,139.962 427.443,139.962" style="fill:none;fill-rule:nonzero;stroke:rgb(140,140,140);stroke-width:1.5px;stroke-dasharray:1.5,1.5;"/>
    </g>
    <g transform="matrix(4.166667,0,0,4.166667,0,371.145833)">
        <path d="M425.412,109.768L429.493,112.71L424.691,114.21C425.981,113.28 426.342,111.059 425.412,109.768Z" style="fill:rgb(140,140,140);"/>
    </g>
    <g transform="matrix(4.112838,0.66759,0.66759,-4.112838,-53.58828,1021.526943)">
        <path d="M402.984,113.696C402.984,113.696 418.8,113.696 426.089,113.696" style="fill:none;fill-rule:nonzero;stroke:rgb(140,140,140);stroke-width:1.5px;stroke-dasharray:1.5,1.5;"/>
    </g>
    <g transform="matrix(4.166667,0,0,4.166667,0,-254.32875)">
        <rect x="501.603" y="181.027" width="32.517" height="12.038" style="fill:white;stroke:black;stroke-width:0.8px;"/>
    </g>
    <g transform="matrix(4.166667,0,0,4.166667,0,-254.333042)">
        <rect x="528.34" y="182.591" width="4.615" height="8.911" style="fill:white;stroke:black;stroke-width:0.8px;"/>
    </g>
    <g transform="matrix(4.166667,0,0,4.166667,0,-254.274708)">
        <rect x="522.755" y="182.584" width="4.615" height="8.911" style="fill:white;stroke:black;stroke-width:0.8px;"/>
    </g>
    <g transform="matrix(4.166667,0,0,4.166667,0,-253.833042)">
        <rect x="515.56" y="182.531" width="4.615" height="8.911" style="fill:white;stroke:black;stroke-width:0.8px;"/>
    </g>
    <g transform="matrix(4.166667,0,0,4.166667,0,-254.166375)">
        <rect x="508.532" y="182.571" width="4.615" height="8.911" style="fill:white;stroke:black;stroke-width:0.8px;"/>
    </g>
    <g transform="matrix(4.166667,0,0,4.166667,0,-254.166375)">
        <rect x="503.068" y="182.571" width="4.615" height="8.911" style="fill:white;stroke:black;stroke-width:0.8px;"/>
    </g>
    <g transform="matrix(4.166667,0,0,4.166667,0,360.554167)">
        <rect x="497.741" y="107.587" width="42.241" height="11.346" style="fill:white;stroke:black;stroke-width:0.8px;"/>
    </g>
    <g transform="matrix(4.166667,0,0,4.166667,0,360.476083)">
        <rect x="534.339" y="109.07" width="4.349" height="8.399" style="fill:white;stroke:black;stroke-width:0.8px;"/>
    </g>
    <g transform="matrix(4.166667,0,0,4.166667,0,360.476083)">
        <rect x="514.157" y="109.07" width="4.349" height="8.399" style="fill:white;stroke:black;stroke-width:0.8px;"/>
    </g>
    <g transform="matrix(4.166667,0,0,4.166667,0,360.476083)">
        <rect x="524.436" y="109.07" width="4.349" height="8.399" style="fill:white;stroke:black;stroke-width:0.8px;"/>
    </g>
    <g transform="matrix(4.166667,0,0,4.166667,0,360.476083)">
        <rect x="504.254" y="109.07" width="4.349" height="8.399" style="fill:white;stroke:black;stroke-width:0.8px;"/>
    </g>
    <g transform="matrix(4.166667,0,0,4.166667,0,360.626083)">
        <rect x="529.383" y="109.052" width="4.349" height="8.399" style="fill:rgb(208,208,208);stroke:black;stroke-width:0.8px;"/>
    </g>
    <g transform="matrix(4.166667,0,0,4.166667,0,360.626083)">
        <rect x="509.201" y="109.052" width="4.349" height="8.399" style="fill:rgb(208,208,208);stroke:black;stroke-width:0.8px;"/>
    </g>
    <g transform="matrix(4.166667,0,0,4.166667,0,360.626083)">
        <rect x="519.48" y="109.052" width="4.349" height="8.399" style="fill:rgb(208,208,208);stroke:black;stroke-width:0.8px;"/>
    </g>
    <g transform="matrix(4.166667,0,0,4.166667,0,360.626083)">
        <rect x="499.298" y="109.052" width="4.349" height="8.399" style="fill:rgb(208,208,208);stroke:black;stroke-width:0.8px;"/>
    </g>
    <g transform="matrix(4.166667,0,0,4.166667,0,57.120833)">
        <path d="M503.173,153.067L513.197,153.945L507.885,145.399C508.624,148.494 506.268,152.328 503.173,153.067Z" style="fill:rgb(115,115,115);"/>
    </g>
    <g transform="matrix(1.327544,-3.949524,-3.949524,-1.327544,2068.032136,2862.116562)">
        <path d="M499.187,156.466C503.696,162.053 515.05,163.606 518.443,156.466" style="fill:none;fill-rule:nonzero;stroke:rgb(115,115,115);stroke-width:3px;"/>
    </g>
    <g transform="matrix(4.166667,0,0,4.166667,0,-57.120833)">
        <path d="M530.398,159.986L520.374,159.108L525.686,167.654C524.947,164.559 527.303,160.725 530.398,159.986Z" style="fill:rgb(115,115,115);"/>
    </g>
    <g transform="matrix(-1.327544,3.949524,3.949524,1.327544,2275.278417,-1620.850814)">
        <path d="M516.358,152.929C520.867,158.516 532.221,160.069 535.614,152.929" style="fill:none;fill-rule:nonzero;stroke:rgb(115,115,115);stroke-width:3px;"/>
    </g>
    <g transform="matrix(0,4.166667,4.166667,0,850.634875,-809.010958)">
        <path d="M210.971,151.532L500.397,151.532" style="fill:none;fill-rule:nonzero;stroke:rgb(115,115,115);stroke-width:0.4px;stroke-dasharray:0.4,0.4;"/>
    </g>
    <g transform="matrix(4.166667,0,0,4.166667,0,-1113.4375)">
        <path d="M350.786,288.714L347.936,290.139L350.786,291.564C350.074,290.852 350.074,289.427 350.786,288.714Z" style="fill:rgb(115,115,115);"/>
    </g>
    <g transform="matrix(4.166667,0,0,4.166667,0,-1113.4375)">
        <path d="M360.582,288.714L363.432,290.139L360.582,291.564C361.294,290.852 361.294,289.427 360.582,288.714Z" style="fill:rgb(115,115,115);"/>
    </g>
    <g transform="matrix(4.166667,0,0,4.166667,0,-1113.4375)">
        <path d="M350.216,290.139L361.152,290.139" style="fill:none;fill-rule:nonzero;stroke:rgb(115,115,115);stroke-width:0.95px;stroke-dasharray:0.95,0.95;"/>
    </g>
</svg>
