<?xml version="1.0"?>
<svg xmlns="http://www.w3.org/2000/svg" xmlns:xlink="http://www.w3.org/1999/xlink" viewBox="0 0 220.300000 200.000000" width="110.150000mm" height="100.000000mm" version="1.1">
<rect x="1.000000" y="1.000000" width="219.300000" height="199.000000" rx="0" ry="0" style="stroke:none;fill:#cccccc;"/>
<rect x="0.000000" y="0.000000" width="219.300000" height="199.000000" rx="0" ry="0" style="stroke:none;fill:#ffffff;"/>
<text x="10.000000" y="7.000000" font-family="Arial" font-size="7"></text>
<a xlink:href="bandpass-0x2b249443ade0.svg">
<rect x="89.450000" y="25.000000" width="77.400000" height="24.000000" rx="0" ry="0" style="stroke:none;fill:#cccccc;"/>
<rect x="88.450000" y="24.000000" width="77.400000" height="24.000000" rx="0" ry="0" style="stroke:none;fill:#003366;"/>
</a>
<a xlink:href="bandpass-0x2b249443ade0.svg">
<text x="127.150000" y="38.000000" font-family="Arial" font-size="7" text-anchor="middle" fill="#FFFFFF">bandpass(1)(1)(0)</text>
</a>
<circle cx="90.450000" cy="26.000000" r="1"/>
<line x1="85.450000" y1="35.000000" x2="88.450000" y2="36.000000"  transform="rotate(0.000000,88.450000,36.000000)" style="stroke: black; stroke-width:0.25;"/>
<line x1="85.450000" y1="37.000000" x2="88.450000" y2="36.000000"  transform="rotate(0.000000,88.450000,36.000000)" style="stroke: black; stroke-width:0.25;"/>
<a xlink:href="bandpass-0x2b249443b580.svg">
<rect x="83.000000" y="57.000000" width="90.300000" height="24.000000" rx="0" ry="0" style="stroke:none;fill:#cccccc;"/>
<rect x="82.000000" y="56.000000" width="90.300000" height="24.000000" rx="0" ry="0" style="stroke:none;fill:#003366;"/>
</a>
<a xlink:href="bandpass-0x2b249443b580.svg">
<text x="127.150000" y="70.000000" font-family="Arial" font-size="7" text-anchor="middle" fill="#FFFFFF">bandpass(1)(1)(100)</text>
</a>
<circle cx="84.000000" cy="58.000000" r="1"/>
<line x1="79.000000" y1="67.000000" x2="82.000000" y2="68.000000"  transform="rotate(0.000000,82.000000,68.000000)" style="stroke: black; stroke-width:0.25;"/>
<line x1="79.000000" y1="69.000000" x2="82.000000" y2="68.000000"  transform="rotate(0.000000,82.000000,68.000000)" style="stroke: black; stroke-width:0.25;"/>
<a xlink:href="bandpass-0x2b249443bc60.svg">
<rect x="83.000000" y="89.000000" width="90.300000" height="24.000000" rx="0" ry="0" style="stroke:none;fill:#cccccc;"/>
<rect x="82.000000" y="88.000000" width="90.300000" height="24.000000" rx="0" ry="0" style="stroke:none;fill:#003366;"/>
</a>
<a xlink:href="bandpass-0x2b249443bc60.svg">
<text x="127.150000" y="102.000000" font-family="Arial" font-size="7" text-anchor="middle" fill="#FFFFFF">bandpass(1)(1)(200)</text>
</a>
<circle cx="84.000000" cy="90.000000" r="1"/>
<line x1="79.000000" y1="99.000000" x2="82.000000" y2="100.000000"  transform="rotate(0.000000,82.000000,100.000000)" style="stroke: black; stroke-width:0.25;"/>
<line x1="79.000000" y1="101.000000" x2="82.000000" y2="100.000000"  transform="rotate(0.000000,82.000000,100.000000)" style="stroke: black; stroke-width:0.25;"/>
<a xlink:href="bandpass-0x2b249443c300.svg">
<rect x="83.000000" y="121.000000" width="90.300000" height="24.000000" rx="0" ry="0" style="stroke:none;fill:#cccccc;"/>
<rect x="82.000000" y="120.000000" width="90.300000" height="24.000000" rx="0" ry="0" style="stroke:none;fill:#003366;"/>
</a>
<a xlink:href="bandpass-0x2b249443c300.svg">
<text x="127.150000" y="134.000000" font-family="Arial" font-size="7" text-anchor="middle" fill="#FFFFFF">bandpass(1)(1)(300)</text>
</a>
<circle cx="84.000000" cy="122.000000" r="1"/>
<line x1="79.000000" y1="131.000000" x2="82.000000" y2="132.000000"  transform="rotate(0.000000,82.000000,132.000000)" style="stroke: black; stroke-width:0.25;"/>
<line x1="79.000000" y1="133.000000" x2="82.000000" y2="132.000000"  transform="rotate(0.000000,82.000000,132.000000)" style="stroke: black; stroke-width:0.25;"/>
<a xlink:href="bandpass-0x2b249443ca00.svg">
<rect x="83.000000" y="153.000000" width="90.300000" height="24.000000" rx="0" ry="0" style="stroke:none;fill:#cccccc;"/>
<rect x="82.000000" y="152.000000" width="90.300000" height="24.000000" rx="0" ry="0" style="stroke:none;fill:#003366;"/>
</a>
<a xlink:href="bandpass-0x2b249443ca00.svg">
<text x="127.150000" y="166.000000" font-family="Arial" font-size="7" text-anchor="middle" fill="#FFFFFF">bandpass(1)(1)(400)</text>
</a>
<circle cx="84.000000" cy="154.000000" r="1"/>
<line x1="79.000000" y1="163.000000" x2="82.000000" y2="164.000000"  transform="rotate(0.000000,82.000000,164.000000)" style="stroke: black; stroke-width:0.25;"/>
<line x1="79.000000" y1="165.000000" x2="82.000000" y2="164.000000"  transform="rotate(0.000000,82.000000,164.000000)" style="stroke: black; stroke-width:0.25;"/>
<line x1="15.000000" y1="15.000000" x2="15.000000" y2="185.000000"  style="stroke: black; stroke-linecap:round; stroke-width:0.25; stroke-dasharray:3,3;"/>
<line x1="15.000000" y1="185.000000" x2="205.300000" y2="185.000000"  style="stroke: black; stroke-linecap:round; stroke-width:0.25; stroke-dasharray:3,3;"/>
<line x1="205.300000" y1="185.000000" x2="205.300000" y2="15.000000"  style="stroke: black; stroke-linecap:round; stroke-width:0.25; stroke-dasharray:3,3;"/>
<line x1="15.000000" y1="15.000000" x2="20.000000" y2="15.000000"  style="stroke: black; stroke-linecap:round; stroke-width:0.25; stroke-dasharray:3,3;"/>
<line x1="49.025000" y1="15.000000" x2="205.300000" y2="15.000000"  style="stroke: black; stroke-linecap:round; stroke-width:0.25; stroke-dasharray:3,3;"/>
<text x="20.000000" y="17.000000" font-family="Arial" font-size="7">process</text>
<line x1="207.300000" y1="83.000000" x2="210.300000" y2="84.000000"  transform="rotate(0.000000,210.300000,84.000000)" style="stroke: black; stroke-width:0.25;"/>
<line x1="207.300000" y1="85.000000" x2="210.300000" y2="84.000000"  transform="rotate(0.000000,210.300000,84.000000)" style="stroke: black; stroke-width:0.25;"/>
<line x1="207.300000" y1="91.000000" x2="210.300000" y2="92.000000"  transform="rotate(0.000000,210.300000,92.000000)" style="stroke: black; stroke-width:0.25;"/>
<line x1="207.300000" y1="93.000000" x2="210.300000" y2="92.000000"  transform="rotate(0.000000,210.300000,92.000000)" style="stroke: black; stroke-width:0.25;"/>
<line x1="207.300000" y1="99.000000" x2="210.300000" y2="100.000000"  transform="rotate(0.000000,210.300000,100.000000)" style="stroke: black; stroke-width:0.25;"/>
<line x1="207.300000" y1="101.000000" x2="210.300000" y2="100.000000"  transform="rotate(0.000000,210.300000,100.000000)" style="stroke: black; stroke-width:0.25;"/>
<line x1="207.300000" y1="107.000000" x2="210.300000" y2="108.000000"  transform="rotate(0.000000,210.300000,108.000000)" style="stroke: black; stroke-width:0.25;"/>
<line x1="207.300000" y1="109.000000" x2="210.300000" y2="108.000000"  transform="rotate(0.000000,210.300000,108.000000)" style="stroke: black; stroke-width:0.25;"/>
<line x1="207.300000" y1="115.000000" x2="210.300000" y2="116.000000"  transform="rotate(0.000000,210.300000,116.000000)" style="stroke: black; stroke-width:0.25;"/>
<line x1="207.300000" y1="117.000000" x2="210.300000" y2="116.000000"  transform="rotate(0.000000,210.300000,116.000000)" style="stroke: black; stroke-width:0.25;"/>
<line x1="10.000000" y1="100.000000" x2="20.000000" y2="100.000000"  style="stroke:black; stroke-linecap:round; stroke-width:0.25;"/>
<line x1="20.000000" y1="100.000000" x2="24.000000" y2="100.000000"  style="stroke:black; stroke-linecap:round; stroke-width:0.25;"/>
<line x1="24.000000" y1="100.000000" x2="28.000000" y2="100.000000"  style="stroke:black; stroke-linecap:round; stroke-width:0.25;"/>
<line x1="28.000000" y1="100.000000" x2="28.000000" y2="100.000000"  style="stroke:black; stroke-linecap:round; stroke-width:0.25;"/>
<line x1="28.000000" y1="100.000000" x2="32.000000" y2="100.000000"  style="stroke:black; stroke-linecap:round; stroke-width:0.25;"/>
<line x1="32.000000" y1="100.000000" x2="36.000000" y2="100.000000"  style="stroke:black; stroke-linecap:round; stroke-width:0.25;"/>
<line x1="36.000000" y1="100.000000" x2="78.000000" y2="36.000000"  style="stroke:black; stroke-linecap:round; stroke-width:0.25;"/>
<line x1="36.000000" y1="100.000000" x2="78.000000" y2="68.000000"  style="stroke:black; stroke-linecap:round; stroke-width:0.25;"/>
<line x1="36.000000" y1="100.000000" x2="78.000000" y2="100.000000"  style="stroke:black; stroke-linecap:round; stroke-width:0.25;"/>
<line x1="36.000000" y1="100.000000" x2="78.000000" y2="132.000000"  style="stroke:black; stroke-linecap:round; stroke-width:0.25;"/>
<line x1="36.000000" y1="100.000000" x2="78.000000" y2="164.000000"  style="stroke:black; stroke-linecap:round; stroke-width:0.25;"/>
<line x1="78.000000" y1="36.000000" x2="84.450000" y2="36.000000"  style="stroke:black; stroke-linecap:round; stroke-width:0.25;"/>
<line x1="78.000000" y1="68.000000" x2="82.000000" y2="68.000000"  style="stroke:black; stroke-linecap:round; stroke-width:0.25;"/>
<line x1="78.000000" y1="100.000000" x2="82.000000" y2="100.000000"  style="stroke:black; stroke-linecap:round; stroke-width:0.25;"/>
<line x1="78.000000" y1="132.000000" x2="82.000000" y2="132.000000"  style="stroke:black; stroke-linecap:round; stroke-width:0.25;"/>
<line x1="78.000000" y1="164.000000" x2="82.000000" y2="164.000000"  style="stroke:black; stroke-linecap:round; stroke-width:0.25;"/>
<line x1="84.450000" y1="36.000000" x2="88.450000" y2="36.000000"  style="stroke:black; stroke-linecap:round; stroke-width:0.25;"/>
<line x1="165.850000" y1="36.000000" x2="169.850000" y2="36.000000"  style="stroke:black; stroke-linecap:round; stroke-width:0.25;"/>
<line x1="169.850000" y1="36.000000" x2="176.300000" y2="36.000000"  style="stroke:black; stroke-linecap:round; stroke-width:0.25;"/>
<line x1="172.300000" y1="68.000000" x2="176.300000" y2="68.000000"  style="stroke:black; stroke-linecap:round; stroke-width:0.25;"/>
<line x1="172.300000" y1="100.000000" x2="176.300000" y2="100.000000"  style="stroke:black; stroke-linecap:round; stroke-width:0.25;"/>
<line x1="172.300000" y1="132.000000" x2="176.300000" y2="132.000000"  style="stroke:black; stroke-linecap:round; stroke-width:0.25;"/>
<line x1="172.300000" y1="164.000000" x2="176.300000" y2="164.000000"  style="stroke:black; stroke-linecap:round; stroke-width:0.25;"/>
<line x1="176.300000" y1="36.000000" x2="192.300000" y2="36.000000"  style="stroke:black; stroke-linecap:round; stroke-width:0.25;"/>
<line x1="176.300000" y1="68.000000" x2="184.300000" y2="68.000000"  style="stroke:black; stroke-linecap:round; stroke-width:0.25;"/>
<line x1="176.300000" y1="100.000000" x2="192.300000" y2="100.000000"  style="stroke:black; stroke-linecap:round; stroke-width:0.25;"/>
<line x1="176.300000" y1="108.000000" x2="192.300000" y2="108.000000"  style="stroke:black; stroke-linecap:round; stroke-width:0.25;"/>
<line x1="176.300000" y1="132.000000" x2="176.300000" y2="108.000000"  style="stroke:black; stroke-linecap:round; stroke-width:0.25;"/>
<line x1="176.300000" y1="132.000000" x2="176.300000" y2="132.000000"  style="stroke:black; stroke-linecap:round; stroke-width:0.25;"/>
<line x1="176.300000" y1="164.000000" x2="184.300000" y2="164.000000"  style="stroke:black; stroke-linecap:round; stroke-width:0.25;"/>
<line x1="184.300000" y1="68.000000" x2="184.300000" y2="92.000000"  style="stroke:black; stroke-linecap:round; stroke-width:0.25;"/>
<line x1="184.300000" y1="92.000000" x2="192.300000" y2="92.000000"  style="stroke:black; stroke-linecap:round; stroke-width:0.25;"/>
<line x1="184.300000" y1="116.000000" x2="192.300000" y2="116.000000"  style="stroke:black; stroke-linecap:round; stroke-width:0.25;"/>
<line x1="184.300000" y1="164.000000" x2="184.300000" y2="116.000000"  style="stroke:black; stroke-linecap:round; stroke-width:0.25;"/>
<line x1="192.300000" y1="36.000000" x2="192.300000" y2="84.000000"  style="stroke:black; stroke-linecap:round; stroke-width:0.25;"/>
<line x1="192.300000" y1="84.000000" x2="192.300000" y2="84.000000"  style="stroke:black; stroke-linecap:round; stroke-width:0.25;"/>
<line x1="192.300000" y1="84.000000" x2="196.300000" y2="84.000000"  style="stroke:black; stroke-linecap:round; stroke-width:0.25;"/>
<line x1="192.300000" y1="92.000000" x2="196.300000" y2="92.000000"  style="stroke:black; stroke-linecap:round; stroke-width:0.25;"/>
<line x1="192.300000" y1="100.000000" x2="196.300000" y2="100.000000"  style="stroke:black; stroke-linecap:round; stroke-width:0.25;"/>
<line x1="192.300000" y1="108.000000" x2="196.300000" y2="108.000000"  style="stroke:black; stroke-linecap:round; stroke-width:0.25;"/>
<line x1="192.300000" y1="116.000000" x2="196.300000" y2="116.000000"  style="stroke:black; stroke-linecap:round; stroke-width:0.25;"/>
<line x1="196.300000" y1="84.000000" x2="200.300000" y2="84.000000"  style="stroke:black; stroke-linecap:round; stroke-width:0.25;"/>
<line x1="196.300000" y1="92.000000" x2="200.300000" y2="92.000000"  style="stroke:black; stroke-linecap:round; stroke-width:0.25;"/>
<line x1="196.300000" y1="100.000000" x2="200.300000" y2="100.000000"  style="stroke:black; stroke-linecap:round; stroke-width:0.25;"/>
<line x1="196.300000" y1="108.000000" x2="200.300000" y2="108.000000"  style="stroke:black; stroke-linecap:round; stroke-width:0.25;"/>
<line x1="196.300000" y1="116.000000" x2="200.300000" y2="116.000000"  style="stroke:black; stroke-linecap:round; stroke-width:0.25;"/>
<line x1="200.300000" y1="84.000000" x2="210.300000" y2="84.000000"  style="stroke:black; stroke-linecap:round; stroke-width:0.25;"/>
<line x1="200.300000" y1="92.000000" x2="210.300000" y2="92.000000"  style="stroke:black; stroke-linecap:round; stroke-width:0.25;"/>
<line x1="200.300000" y1="100.000000" x2="210.300000" y2="100.000000"  style="stroke:black; stroke-linecap:round; stroke-width:0.25;"/>
<line x1="200.300000" y1="108.000000" x2="210.300000" y2="108.000000"  style="stroke:black; stroke-linecap:round; stroke-width:0.25;"/>
<line x1="200.300000" y1="116.000000" x2="210.300000" y2="116.000000"  style="stroke:black; stroke-linecap:round; stroke-width:0.25;"/>
</svg>
